<?xml version="1.0" encoding="utf-8" standalone="no"?>
<!DOCTYPE svg PUBLIC "-//W3C//DTD SVG 1.1//EN"
  "http://www.w3.org/Graphics/SVG/1.1/DTD/svg11.dtd">
<svg xmlns:xlink="http://www.w3.org/1999/xlink" width="720pt" height="864pt" viewBox="0 0 720 864" xmlns="http://www.w3.org/2000/svg" version="1.1">
 <metadata>
  <rdf:RDF xmlns:dc="http://purl.org/dc/elements/1.1/" xmlns:cc="http://creativecommons.org/ns#" xmlns:rdf="http://www.w3.org/1999/02/22-rdf-syntax-ns#">
   <cc:Work>
    <dc:type rdf:resource="http://purl.org/dc/dcmitype/StillImage"/>
    <dc:date>2023-07-02T21:10:30.428731</dc:date>
    <dc:format>image/svg+xml</dc:format>
    <dc:creator>
     <cc:Agent>
      <dc:title>Matplotlib v3.7.1, https://matplotlib.org/</dc:title>
     </cc:Agent>
    </dc:creator>
   </cc:Work>
  </rdf:RDF>
 </metadata>
 <defs>
  <style type="text/css">*{stroke-linejoin: round; stroke-linecap: butt}</style>
 </defs>
 <g id="figure_1">
  <g id="patch_1">
   <path d="M 0 864 
L 720 864 
L 720 0 
L 0 0 
z
" style="fill: #ffffff"/>
  </g>
  <g id="axes_1">
   <g id="patch_2">
    <path d="M 146.978778 162.745259 
Q 306.682691 186.998342 465.281244 162.912758 
" clip-path="url(#pe46dc7d2b5)" style="fill: none; stroke: #000000; stroke-linecap: round"/>
    <path d="M 461.0263 161.536004 
L 465.281244 162.912758 
L 461.626875 165.490661 
z
" clip-path="url(#pe46dc7d2b5)" style="stroke: #000000; stroke-linecap: round"/>
   </g>
   <g id="patch_3">
    <path d="M 137.190537 169.982486 
Q 132.959266 203.242806 137.048926 235.394028 
" clip-path="url(#pe46dc7d2b5)" style="fill: none; stroke: #000000; stroke-linecap: round"/>
    <path d="M 138.528204 231.173633 
L 137.048926 235.394028 
L 134.560176 231.678369 
z
" clip-path="url(#pe46dc7d2b5)" style="stroke: #000000; stroke-linecap: round"/>
   </g>
   <g id="patch_4">
    <path d="M 466.384189 160.076559 
Q 306.680275 135.823477 148.081722 159.90906 
" clip-path="url(#pe46dc7d2b5)" style="fill: none; stroke: #000000; stroke-linecap: round"/>
    <path d="M 152.336666 161.285814 
L 148.081722 159.90906 
L 151.736092 157.331157 
z
" clip-path="url(#pe46dc7d2b5)" style="stroke: #000000; stroke-linecap: round"/>
   </g>
   <g id="patch_5">
    <path d="M 473.710528 169.982486 
Q 469.479257 203.242806 473.568917 235.394028 
" clip-path="url(#pe46dc7d2b5)" style="fill: none; stroke: #000000; stroke-linecap: round"/>
    <path d="M 475.048195 231.173633 
L 473.568917 235.394028 
L 471.080167 231.678369 
z
" clip-path="url(#pe46dc7d2b5)" style="stroke: #000000; stroke-linecap: round"/>
   </g>
   <g id="patch_6">
    <path d="M 139.652438 236.507317 
Q 143.883709 203.246997 139.794049 171.095774 
" clip-path="url(#pe46dc7d2b5)" style="fill: none; stroke: #000000; stroke-linecap: round"/>
    <path d="M 138.314772 175.31617 
L 139.794049 171.095774 
L 142.282799 174.811434 
z
" clip-path="url(#pe46dc7d2b5)" style="stroke: #000000; stroke-linecap: round"/>
   </g>
   <g id="patch_7">
    <path d="M 146.993327 246.332483 
Q 188.277621 251.802249 228.453568 246.478988 
" clip-path="url(#pe46dc7d2b5)" style="fill: none; stroke: #000000; stroke-linecap: round"/>
    <path d="M 224.225523 245.021719 
L 228.453568 246.478988 
L 224.750926 248.987063 
z
" clip-path="url(#pe46dc7d2b5)" style="stroke: #000000; stroke-linecap: round"/>
   </g>
   <g id="patch_8">
    <path d="M 137.132766 253.644998 
Q 128.235656 316.794928 136.976959 378.837759 
" clip-path="url(#pe46dc7d2b5)" style="fill: none; stroke: #000000; stroke-linecap: round"/>
    <path d="M 138.399346 374.597851 
L 136.976959 378.837759 
L 134.438465 375.155905 
z
" clip-path="url(#pe46dc7d2b5)" style="stroke: #000000; stroke-linecap: round"/>
   </g>
   <g id="patch_9">
    <path d="M 229.559276 243.825304 
Q 188.274981 238.355538 148.099034 243.678799 
" clip-path="url(#pe46dc7d2b5)" style="fill: none; stroke: #000000; stroke-linecap: round"/>
    <path d="M 152.32708 245.136068 
L 148.099034 243.678799 
L 151.801677 241.170724 
z
" clip-path="url(#pe46dc7d2b5)" style="stroke: #000000; stroke-linecap: round"/>
   </g>
   <g id="patch_10">
    <path d="M 246.69953 246.345119 
Q 294.219369 252.786749 340.631307 246.494882 
" clip-path="url(#pe46dc7d2b5)" style="fill: none; stroke: #000000; stroke-linecap: round"/>
    <path d="M 336.398891 245.050358 
L 340.631307 246.494882 
L 336.936238 249.014101 
z
" clip-path="url(#pe46dc7d2b5)" style="stroke: #000000; stroke-linecap: round"/>
   </g>
   <g id="patch_11">
    <path d="M 236.842393 253.644998 
Q 227.945283 316.794928 236.686586 378.837759 
" clip-path="url(#pe46dc7d2b5)" style="fill: none; stroke: #000000; stroke-linecap: round"/>
    <path d="M 238.108973 374.597851 
L 236.686586 378.837759 
L 234.148092 375.155905 
z
" clip-path="url(#pe46dc7d2b5)" style="stroke: #000000; stroke-linecap: round"/>
   </g>
   <g id="patch_12">
    <path d="M 341.736029 243.812667 
Q 294.216191 237.371038 247.804252 243.662905 
" clip-path="url(#pe46dc7d2b5)" style="fill: none; stroke: #000000; stroke-linecap: round"/>
    <path d="M 252.036669 245.107429 
L 247.804252 243.662905 
L 251.499321 241.143686 
z
" clip-path="url(#pe46dc7d2b5)" style="stroke: #000000; stroke-linecap: round"/>
   </g>
   <g id="patch_13">
    <path d="M 358.866394 246.354699 
Q 412.619488 253.773571 465.265044 246.508498 
" clip-path="url(#pe46dc7d2b5)" style="fill: none; stroke: #000000; stroke-linecap: round"/>
    <path d="M 461.029187 245.074091 
L 465.265044 246.508498 
L 461.576004 249.036538 
z
" clip-path="url(#pe46dc7d2b5)" style="stroke: #000000; stroke-linecap: round"/>
   </g>
   <g id="patch_14">
    <path d="M 349.096512 253.653753 
Q 345.775135 280.936685 348.961422 307.109777 
" clip-path="url(#pe46dc7d2b5)" style="fill: none; stroke: #000000; stroke-linecap: round"/>
    <path d="M 350.463377 302.897399 
L 348.961422 307.109777 
L 346.492692 303.380786 
z
" clip-path="url(#pe46dc7d2b5)" style="stroke: #000000; stroke-linecap: round"/>
   </g>
   <g id="patch_15">
    <path d="M 476.172429 236.507317 
Q 480.4037 203.246997 476.31404 171.095774 
" clip-path="url(#pe46dc7d2b5)" style="fill: none; stroke: #000000; stroke-linecap: round"/>
    <path d="M 474.834763 175.31617 
L 476.31404 171.095774 
L 478.80279 174.811434 
z
" clip-path="url(#pe46dc7d2b5)" style="stroke: #000000; stroke-linecap: round"/>
   </g>
   <g id="patch_16">
    <path d="M 466.379529 243.803088 
Q 412.626436 236.384216 359.98088 243.649289 
" clip-path="url(#pe46dc7d2b5)" style="fill: none; stroke: #000000; stroke-linecap: round"/>
    <path d="M 364.216736 245.083696 
L 359.98088 243.649289 
L 363.669919 241.121248 
z
" clip-path="url(#pe46dc7d2b5)" style="stroke: #000000; stroke-linecap: round"/>
   </g>
   <g id="patch_17">
    <path d="M 473.733546 253.653753 
Q 470.412168 280.936685 473.598455 307.109777 
" clip-path="url(#pe46dc7d2b5)" style="fill: none; stroke: #000000; stroke-linecap: round"/>
    <path d="M 475.10041 302.897399 
L 473.598455 307.109777 
L 471.129726 303.380786 
z
" clip-path="url(#pe46dc7d2b5)" style="stroke: #000000; stroke-linecap: round"/>
   </g>
   <g id="patch_18">
    <path d="M 591.016563 315.518503 
Q 537.263469 308.099631 484.617914 315.364704 
" clip-path="url(#pe46dc7d2b5)" style="fill: none; stroke: #000000; stroke-linecap: round"/>
    <path d="M 488.85377 316.799111 
L 484.617914 315.364704 
L 488.306953 312.836663 
z
" clip-path="url(#pe46dc7d2b5)" style="stroke: #000000; stroke-linecap: round"/>
   </g>
   <g id="patch_19">
    <path d="M 598.370579 325.369168 
Q 595.049202 352.6521 598.235489 378.825192 
" clip-path="url(#pe46dc7d2b5)" style="fill: none; stroke: #000000; stroke-linecap: round"/>
    <path d="M 599.737444 374.612814 
L 598.235489 378.825192 
L 595.766759 375.096201 
z
" clip-path="url(#pe46dc7d2b5)" style="stroke: #000000; stroke-linecap: round"/>
   </g>
   <g id="patch_20">
    <path d="M 476.149412 308.219449 
Q 479.470789 280.936517 476.284502 254.763424 
" clip-path="url(#pe46dc7d2b5)" style="fill: none; stroke: #000000; stroke-linecap: round"/>
    <path d="M 474.782547 258.975803 
L 476.284502 254.763424 
L 478.753232 258.492415 
z
" clip-path="url(#pe46dc7d2b5)" style="stroke: #000000; stroke-linecap: round"/>
   </g>
   <g id="patch_21">
    <path d="M 483.503428 318.070114 
Q 537.256522 325.488986 589.902077 318.223913 
" clip-path="url(#pe46dc7d2b5)" style="fill: none; stroke: #000000; stroke-linecap: round"/>
    <path d="M 585.666221 316.789506 
L 589.902077 318.223913 
L 586.213038 320.751953 
z
" clip-path="url(#pe46dc7d2b5)" style="stroke: #000000; stroke-linecap: round"/>
   </g>
   <g id="patch_22">
    <path d="M 466.379529 315.518503 
Q 412.626436 308.099631 359.98088 315.364704 
" clip-path="url(#pe46dc7d2b5)" style="fill: none; stroke: #000000; stroke-linecap: round"/>
    <path d="M 364.216736 316.799111 
L 359.98088 315.364704 
L 363.669919 312.836663 
z
" clip-path="url(#pe46dc7d2b5)" style="stroke: #000000; stroke-linecap: round"/>
   </g>
   <g id="patch_23">
    <path d="M 473.733546 325.369168 
Q 470.412168 352.6521 473.598455 378.825192 
" clip-path="url(#pe46dc7d2b5)" style="fill: none; stroke: #000000; stroke-linecap: round"/>
    <path d="M 475.10041 374.612814 
L 473.598455 378.825192 
L 471.129726 375.096201 
z
" clip-path="url(#pe46dc7d2b5)" style="stroke: #000000; stroke-linecap: round"/>
   </g>
   <g id="patch_24">
    <path d="M 351.512378 308.219449 
Q 354.833755 280.936517 351.647468 254.763424 
" clip-path="url(#pe46dc7d2b5)" style="fill: none; stroke: #000000; stroke-linecap: round"/>
    <path d="M 350.145513 258.975803 
L 351.647468 254.763424 
L 354.116198 258.492415 
z
" clip-path="url(#pe46dc7d2b5)" style="stroke: #000000; stroke-linecap: round"/>
   </g>
   <g id="patch_25">
    <path d="M 358.866394 318.070114 
Q 412.619488 325.488986 465.265044 318.223913 
" clip-path="url(#pe46dc7d2b5)" style="fill: none; stroke: #000000; stroke-linecap: round"/>
    <path d="M 461.029187 316.789506 
L 465.265044 318.223913 
L 461.576004 320.751953 
z
" clip-path="url(#pe46dc7d2b5)" style="stroke: #000000; stroke-linecap: round"/>
   </g>
   <g id="patch_26">
    <path d="M 349.096512 325.369168 
Q 345.775135 352.6521 348.961422 378.825192 
" clip-path="url(#pe46dc7d2b5)" style="fill: none; stroke: #000000; stroke-linecap: round"/>
    <path d="M 350.463377 374.612814 
L 348.961422 378.825192 
L 346.492692 375.096201 
z
" clip-path="url(#pe46dc7d2b5)" style="stroke: #000000; stroke-linecap: round"/>
   </g>
   <g id="patch_27">
    <path d="M 351.512378 379.934864 
Q 354.833755 352.651932 351.647468 326.478839 
" clip-path="url(#pe46dc7d2b5)" style="fill: none; stroke: #000000; stroke-linecap: round"/>
    <path d="M 350.145513 330.691218 
L 351.647468 326.478839 
L 354.116198 330.20783 
z
" clip-path="url(#pe46dc7d2b5)" style="stroke: #000000; stroke-linecap: round"/>
   </g>
   <g id="patch_28">
    <path d="M 341.736029 387.243497 
Q 294.216191 380.801868 247.804252 387.093735 
" clip-path="url(#pe46dc7d2b5)" style="fill: none; stroke: #000000; stroke-linecap: round"/>
    <path d="M 252.036669 388.538259 
L 247.804252 387.093735 
L 251.499321 384.574516 
z
" clip-path="url(#pe46dc7d2b5)" style="stroke: #000000; stroke-linecap: round"/>
   </g>
   <g id="patch_29">
    <path d="M 349.010413 397.068898 
Q 339.168053 466.199683 348.852337 534.223594 
" clip-path="url(#pe46dc7d2b5)" style="fill: none; stroke: #000000; stroke-linecap: round"/>
    <path d="M 350.268593 529.981635 
L 348.852337 534.223594 
L 346.308523 530.545413 
z
" clip-path="url(#pe46dc7d2b5)" style="stroke: #000000; stroke-linecap: round"/>
   </g>
   <g id="patch_30">
    <path d="M 358.866394 389.785529 
Q 412.619488 397.204401 465.265044 389.939328 
" clip-path="url(#pe46dc7d2b5)" style="fill: none; stroke: #000000; stroke-linecap: round"/>
    <path d="M 461.029187 388.504921 
L 465.265044 389.939328 
L 461.576004 392.467368 
z
" clip-path="url(#pe46dc7d2b5)" style="stroke: #000000; stroke-linecap: round"/>
   </g>
   <g id="patch_31">
    <path d="M 357.082798 393.896289 
Q 407.527444 433.221129 465.838833 456.654218 
" clip-path="url(#pe46dc7d2b5)" style="fill: none; stroke: #000000; stroke-linecap: round"/>
    <path d="M 462.873071 453.306942 
L 465.838833 456.654218 
L 461.381555 457.018462 
z
" clip-path="url(#pe46dc7d2b5)" style="stroke: #000000; stroke-linecap: round"/>
   </g>
   <g id="patch_32">
    <path d="M 239.419837 379.943618 
Q 248.316946 316.793688 239.575643 254.750858 
" clip-path="url(#pe46dc7d2b5)" style="fill: none; stroke: #000000; stroke-linecap: round"/>
    <path d="M 238.153257 258.990766 
L 239.575643 254.750858 
L 242.114137 258.432712 
z
" clip-path="url(#pe46dc7d2b5)" style="stroke: #000000; stroke-linecap: round"/>
   </g>
   <g id="patch_33">
    <path d="M 246.69953 389.775949 
Q 294.219369 396.217579 340.631307 389.925712 
" clip-path="url(#pe46dc7d2b5)" style="fill: none; stroke: #000000; stroke-linecap: round"/>
    <path d="M 336.398891 388.481188 
L 340.631307 389.925712 
L 336.936238 392.444931 
z
" clip-path="url(#pe46dc7d2b5)" style="stroke: #000000; stroke-linecap: round"/>
   </g>
   <g id="patch_34">
    <path d="M 229.559276 387.256134 
Q 188.274981 381.786368 148.099034 387.109629 
" clip-path="url(#pe46dc7d2b5)" style="fill: none; stroke: #000000; stroke-linecap: round"/>
    <path d="M 152.32708 388.566898 
L 148.099034 387.109629 
L 151.801677 384.601554 
z
" clip-path="url(#pe46dc7d2b5)" style="stroke: #000000; stroke-linecap: round"/>
   </g>
   <g id="patch_35">
    <path d="M 236.837083 397.068898 
Q 226.994722 466.199683 236.679006 534.223594 
" clip-path="url(#pe46dc7d2b5)" style="fill: none; stroke: #000000; stroke-linecap: round"/>
    <path d="M 238.095262 529.981635 
L 236.679006 534.223594 
L 234.135192 530.545413 
z
" clip-path="url(#pe46dc7d2b5)" style="stroke: #000000; stroke-linecap: round"/>
   </g>
   <g id="patch_36">
    <path d="M 139.71021 379.943618 
Q 148.607319 316.793688 139.866016 254.750858 
" clip-path="url(#pe46dc7d2b5)" style="fill: none; stroke: #000000; stroke-linecap: round"/>
    <path d="M 138.44363 258.990766 
L 139.866016 254.750858 
L 142.40451 258.432712 
z
" clip-path="url(#pe46dc7d2b5)" style="stroke: #000000; stroke-linecap: round"/>
   </g>
   <g id="patch_37">
    <path d="M 146.993327 389.763313 
Q 188.277621 395.233079 228.453568 389.909818 
" clip-path="url(#pe46dc7d2b5)" style="fill: none; stroke: #000000; stroke-linecap: round"/>
    <path d="M 224.225523 388.452549 
L 228.453568 389.909818 
L 224.750926 392.417893 
z
" clip-path="url(#pe46dc7d2b5)" style="stroke: #000000; stroke-linecap: round"/>
   </g>
   <g id="patch_38">
    <path d="M 137.089197 397.063244 
Q 113.936486 549.86771 136.921195 701.566758 
" clip-path="url(#pe46dc7d2b5)" style="fill: none; stroke: #000000; stroke-linecap: round"/>
    <path d="M 138.299405 697.312285 
L 136.921195 701.566758 
L 134.344543 697.911506 
z
" clip-path="url(#pe46dc7d2b5)" style="stroke: #000000; stroke-linecap: round"/>
   </g>
   <g id="patch_39">
    <path d="M 139.753778 702.67557 
Q 162.90649 549.871105 139.92178 398.172057 
" clip-path="url(#pe46dc7d2b5)" style="fill: none; stroke: #000000; stroke-linecap: round"/>
    <path d="M 138.54357 402.42653 
L 139.92178 398.172057 
L 142.498432 401.827308 
z
" clip-path="url(#pe46dc7d2b5)" style="stroke: #000000; stroke-linecap: round"/>
   </g>
   <g id="patch_40">
    <path d="M 146.993327 712.482681 
Q 188.277621 717.952446 228.453568 712.629185 
" clip-path="url(#pe46dc7d2b5)" style="fill: none; stroke: #000000; stroke-linecap: round"/>
    <path d="M 224.225523 711.171916 
L 228.453568 712.629185 
L 224.750926 715.13726 
z
" clip-path="url(#pe46dc7d2b5)" style="stroke: #000000; stroke-linecap: round"/>
   </g>
   <g id="patch_41">
    <path d="M 239.425146 535.333948 
Q 249.267507 466.203163 239.583223 398.179252 
" clip-path="url(#pe46dc7d2b5)" style="fill: none; stroke: #000000; stroke-linecap: round"/>
    <path d="M 238.166967 402.421211 
L 239.583223 398.179252 
L 242.127037 401.857432 
z
" clip-path="url(#pe46dc7d2b5)" style="stroke: #000000; stroke-linecap: round"/>
   </g>
   <g id="patch_42">
    <path d="M 246.69953 545.159349 
Q 294.219369 551.600978 340.631307 545.309111 
" clip-path="url(#pe46dc7d2b5)" style="fill: none; stroke: #000000; stroke-linecap: round"/>
    <path d="M 336.398891 543.864587 
L 340.631307 545.309111 
L 336.936238 547.82833 
z
" clip-path="url(#pe46dc7d2b5)" style="stroke: #000000; stroke-linecap: round"/>
   </g>
   <g id="patch_43">
    <path d="M 236.923181 552.467982 
Q 233.601804 579.750914 236.788091 605.924007 
" clip-path="url(#pe46dc7d2b5)" style="fill: none; stroke: #000000; stroke-linecap: round"/>
    <path d="M 238.290046 601.711628 
L 236.788091 605.924007 
L 234.319362 602.195016 
z
" clip-path="url(#pe46dc7d2b5)" style="stroke: #000000; stroke-linecap: round"/>
   </g>
   <g id="patch_44">
    <path d="M 351.598477 535.333948 
Q 361.440837 466.203163 351.756553 398.179252 
" clip-path="url(#pe46dc7d2b5)" style="fill: none; stroke: #000000; stroke-linecap: round"/>
    <path d="M 350.340297 402.421211 
L 351.756553 398.179252 
L 354.300367 401.857432 
z
" clip-path="url(#pe46dc7d2b5)" style="stroke: #000000; stroke-linecap: round"/>
   </g>
   <g id="patch_45">
    <path d="M 341.736029 542.626896 
Q 294.216191 536.185267 247.804252 542.477134 
" clip-path="url(#pe46dc7d2b5)" style="fill: none; stroke: #000000; stroke-linecap: round"/>
    <path d="M 252.036669 543.921658 
L 247.804252 542.477134 
L 251.499321 539.957915 
z
" clip-path="url(#pe46dc7d2b5)" style="stroke: #000000; stroke-linecap: round"/>
   </g>
   <g id="patch_46">
    <path d="M 358.866394 545.168928 
Q 412.619488 552.5878 465.265044 545.322727 
" clip-path="url(#pe46dc7d2b5)" style="fill: none; stroke: #000000; stroke-linecap: round"/>
    <path d="M 461.029187 543.88832 
L 465.265044 545.322727 
L 461.576004 547.850768 
z
" clip-path="url(#pe46dc7d2b5)" style="stroke: #000000; stroke-linecap: round"/>
   </g>
   <g id="patch_47">
    <path d="M 349.096512 552.467982 
Q 345.775135 579.750914 348.961422 605.924007 
" clip-path="url(#pe46dc7d2b5)" style="fill: none; stroke: #000000; stroke-linecap: round"/>
    <path d="M 350.463377 601.711628 
L 348.961422 605.924007 
L 346.492692 602.195016 
z
" clip-path="url(#pe46dc7d2b5)" style="stroke: #000000; stroke-linecap: round"/>
   </g>
   <g id="patch_48">
    <path d="M 476.149412 379.934864 
Q 479.470789 352.651932 476.284502 326.478839 
" clip-path="url(#pe46dc7d2b5)" style="fill: none; stroke: #000000; stroke-linecap: round"/>
    <path d="M 474.782547 330.691218 
L 476.284502 326.478839 
L 478.753232 330.20783 
z
" clip-path="url(#pe46dc7d2b5)" style="stroke: #000000; stroke-linecap: round"/>
   </g>
   <g id="patch_49">
    <path d="M 466.379529 387.233918 
Q 412.626436 379.815046 359.98088 387.080119 
" clip-path="url(#pe46dc7d2b5)" style="fill: none; stroke: #000000; stroke-linecap: round"/>
    <path d="M 364.216736 388.514526 
L 359.98088 387.080119 
L 363.669919 384.552078 
z
" clip-path="url(#pe46dc7d2b5)" style="stroke: #000000; stroke-linecap: round"/>
   </g>
   <g id="patch_50">
    <path d="M 473.733546 397.084583 
Q 470.412168 424.367515 473.598455 450.540607 
" clip-path="url(#pe46dc7d2b5)" style="fill: none; stroke: #000000; stroke-linecap: round"/>
    <path d="M 475.10041 446.328229 
L 473.598455 450.540607 
L 471.129726 446.811616 
z
" clip-path="url(#pe46dc7d2b5)" style="stroke: #000000; stroke-linecap: round"/>
   </g>
   <g id="patch_51">
    <path d="M 483.503428 389.785529 
Q 537.256522 397.204401 589.902077 389.939328 
" clip-path="url(#pe46dc7d2b5)" style="fill: none; stroke: #000000; stroke-linecap: round"/>
    <path d="M 585.666221 388.504921 
L 589.902077 389.939328 
L 586.213038 392.467368 
z
" clip-path="url(#pe46dc7d2b5)" style="stroke: #000000; stroke-linecap: round"/>
   </g>
   <g id="patch_52">
    <path d="M 468.163126 454.838573 
Q 417.718479 415.513732 359.407091 392.080643 
" clip-path="url(#pe46dc7d2b5)" style="fill: none; stroke: #000000; stroke-linecap: round"/>
    <path d="M 362.372853 395.427919 
L 359.407091 392.080643 
L 363.864369 391.716399 
z
" clip-path="url(#pe46dc7d2b5)" style="stroke: #000000; stroke-linecap: round"/>
   </g>
   <g id="patch_53">
    <path d="M 476.149412 451.650279 
Q 479.470789 424.367347 476.284502 398.194254 
" clip-path="url(#pe46dc7d2b5)" style="fill: none; stroke: #000000; stroke-linecap: round"/>
    <path d="M 474.782547 402.406633 
L 476.284502 398.194254 
L 478.753232 401.923245 
z
" clip-path="url(#pe46dc7d2b5)" style="stroke: #000000; stroke-linecap: round"/>
   </g>
   <g id="patch_54">
    <path d="M 473.710528 468.796715 
Q 469.479257 502.057035 473.568917 534.208257 
" clip-path="url(#pe46dc7d2b5)" style="fill: none; stroke: #000000; stroke-linecap: round"/>
    <path d="M 475.048195 529.987862 
L 473.568917 534.208257 
L 471.080167 530.492598 
z
" clip-path="url(#pe46dc7d2b5)" style="stroke: #000000; stroke-linecap: round"/>
   </g>
   <g id="patch_55">
    <path d="M 600.786445 379.934864 
Q 604.107823 352.651932 600.921536 326.478839 
" clip-path="url(#pe46dc7d2b5)" style="fill: none; stroke: #000000; stroke-linecap: round"/>
    <path d="M 599.419581 330.691218 
L 600.921536 326.478839 
L 603.390265 330.20783 
z
" clip-path="url(#pe46dc7d2b5)" style="stroke: #000000; stroke-linecap: round"/>
   </g>
   <g id="patch_56">
    <path d="M 591.016563 387.233918 
Q 537.263469 379.815046 484.617914 387.080119 
" clip-path="url(#pe46dc7d2b5)" style="fill: none; stroke: #000000; stroke-linecap: round"/>
    <path d="M 488.85377 388.514526 
L 484.617914 387.080119 
L 488.306953 384.552078 
z
" clip-path="url(#pe46dc7d2b5)" style="stroke: #000000; stroke-linecap: round"/>
   </g>
   <g id="patch_57">
    <path d="M 595.251425 396.008654 
Q 512.688831 540.377287 477.020593 701.672034 
" clip-path="url(#pe46dc7d2b5)" style="fill: none; stroke: #000000; stroke-linecap: round"/>
    <path d="M 479.837097 698.198232 
L 477.020593 701.672034 
L 475.931453 697.33455 
z
" clip-path="url(#pe46dc7d2b5)" style="stroke: #000000; stroke-linecap: round"/>
   </g>
   <g id="patch_58">
    <path d="M 466.379529 542.617317 
Q 412.626436 535.198445 359.98088 542.463518 
" clip-path="url(#pe46dc7d2b5)" style="fill: none; stroke: #000000; stroke-linecap: round"/>
    <path d="M 364.216736 543.897925 
L 359.98088 542.463518 
L 363.669919 539.935477 
z
" clip-path="url(#pe46dc7d2b5)" style="stroke: #000000; stroke-linecap: round"/>
   </g>
   <g id="patch_59">
    <path d="M 476.172429 535.321546 
Q 480.4037 502.061226 476.31404 469.910003 
" clip-path="url(#pe46dc7d2b5)" style="fill: none; stroke: #000000; stroke-linecap: round"/>
    <path d="M 474.834763 474.130399 
L 476.31404 469.910003 
L 478.80279 473.625663 
z
" clip-path="url(#pe46dc7d2b5)" style="stroke: #000000; stroke-linecap: round"/>
   </g>
   <g id="patch_60">
    <path d="M 473.641744 552.454486 
Q 462.854371 627.560863 473.482725 701.560563 
" clip-path="url(#pe46dc7d2b5)" style="fill: none; stroke: #000000; stroke-linecap: round"/>
    <path d="M 474.893738 697.316856 
L 473.482725 701.560563 
L 470.934368 697.885529 
z
" clip-path="url(#pe46dc7d2b5)" style="stroke: #000000; stroke-linecap: round"/>
   </g>
   <g id="patch_61">
    <path d="M 479.268566 703.73016 
Q 561.83116 559.361528 597.499398 398.06678 
" clip-path="url(#pe46dc7d2b5)" style="fill: none; stroke: #000000; stroke-linecap: round"/>
    <path d="M 594.682894 401.540582 
L 597.499398 398.06678 
L 598.588538 402.404265 
z
" clip-path="url(#pe46dc7d2b5)" style="stroke: #000000; stroke-linecap: round"/>
   </g>
   <g id="patch_62">
    <path d="M 476.241213 702.667728 
Q 487.028587 627.56135 476.400232 553.561651 
" clip-path="url(#pe46dc7d2b5)" style="fill: none; stroke: #000000; stroke-linecap: round"/>
    <path d="M 474.989219 557.805357 
L 476.400232 553.561651 
L 478.948589 557.236685 
z
" clip-path="url(#pe46dc7d2b5)" style="stroke: #000000; stroke-linecap: round"/>
   </g>
   <g id="patch_63">
    <path d="M 466.379529 709.953285 
Q 412.626436 702.534413 359.98088 709.799486 
" clip-path="url(#pe46dc7d2b5)" style="fill: none; stroke: #000000; stroke-linecap: round"/>
    <path d="M 364.216736 711.233893 
L 359.98088 709.799486 
L 363.669919 707.271446 
z
" clip-path="url(#pe46dc7d2b5)" style="stroke: #000000; stroke-linecap: round"/>
   </g>
   <g id="patch_64">
    <path d="M 468.933253 704.98621 
Q 419.48204 654.474316 358.860291 620.341096 
" clip-path="url(#pe46dc7d2b5)" style="fill: none; stroke: #000000; stroke-linecap: round"/>
    <path d="M 361.364517 624.046343 
L 358.860291 620.341096 
L 363.327024 620.560864 
z
" clip-path="url(#pe46dc7d2b5)" style="stroke: #000000; stroke-linecap: round"/>
   </g>
   <g id="patch_65">
    <path d="M 358.866394 712.504897 
Q 412.619488 719.923768 465.265044 712.658695 
" clip-path="url(#pe46dc7d2b5)" style="fill: none; stroke: #000000; stroke-linecap: round"/>
    <path d="M 461.029187 711.224288 
L 465.265044 712.658695 
L 461.576004 715.186736 
z
" clip-path="url(#pe46dc7d2b5)" style="stroke: #000000; stroke-linecap: round"/>
   </g>
   <g id="patch_66">
    <path d="M 351.552814 702.658609 
Q 356.705922 663.417272 351.697989 625.28445 
" clip-path="url(#pe46dc7d2b5)" style="fill: none; stroke: #000000; stroke-linecap: round"/>
    <path d="M 350.235859 629.510817 
L 351.697989 625.28445 
L 354.201804 628.989975 
z
" clip-path="url(#pe46dc7d2b5)" style="stroke: #000000; stroke-linecap: round"/>
   </g>
   <g id="patch_67">
    <path d="M 341.736029 709.962865 
Q 294.216191 703.521235 247.804252 709.813102 
" clip-path="url(#pe46dc7d2b5)" style="fill: none; stroke: #000000; stroke-linecap: round"/>
    <path d="M 252.036669 711.257626 
L 247.804252 709.813102 
L 251.499321 707.293883 
z
" clip-path="url(#pe46dc7d2b5)" style="stroke: #000000; stroke-linecap: round"/>
   </g>
   <g id="patch_68">
    <path d="M 351.512378 607.033678 
Q 354.833755 579.750746 351.647468 553.577654 
" clip-path="url(#pe46dc7d2b5)" style="fill: none; stroke: #000000; stroke-linecap: round"/>
    <path d="M 350.145513 557.790032 
L 351.647468 553.577654 
L 354.116198 557.306645 
z
" clip-path="url(#pe46dc7d2b5)" style="stroke: #000000; stroke-linecap: round"/>
   </g>
   <g id="patch_69">
    <path d="M 356.31267 621.851419 
Q 405.763884 672.363313 466.385633 706.496533 
" clip-path="url(#pe46dc7d2b5)" style="fill: none; stroke: #000000; stroke-linecap: round"/>
    <path d="M 463.881407 702.791286 
L 466.385633 706.496533 
L 461.9189 706.276765 
z
" clip-path="url(#pe46dc7d2b5)" style="stroke: #000000; stroke-linecap: round"/>
   </g>
   <g id="patch_70">
    <path d="M 349.056076 624.17902 
Q 343.902968 663.420357 348.910901 701.553178 
" clip-path="url(#pe46dc7d2b5)" style="fill: none; stroke: #000000; stroke-linecap: round"/>
    <path d="M 350.373031 697.326811 
L 348.910901 701.553178 
L 346.407086 697.847654 
z
" clip-path="url(#pe46dc7d2b5)" style="stroke: #000000; stroke-linecap: round"/>
   </g>
   <g id="patch_71">
    <path d="M 341.736029 614.342311 
Q 294.216191 607.900682 247.804252 614.192549 
" clip-path="url(#pe46dc7d2b5)" style="fill: none; stroke: #000000; stroke-linecap: round"/>
    <path d="M 252.036669 615.637073 
L 247.804252 614.192549 
L 251.499321 611.67333 
z
" clip-path="url(#pe46dc7d2b5)" style="stroke: #000000; stroke-linecap: round"/>
   </g>
   <g id="patch_72">
    <path d="M 239.339048 607.033678 
Q 242.660425 579.750746 239.474138 553.577654 
" clip-path="url(#pe46dc7d2b5)" style="fill: none; stroke: #000000; stroke-linecap: round"/>
    <path d="M 237.972183 557.790032 
L 239.474138 553.577654 
L 241.942868 557.306645 
z
" clip-path="url(#pe46dc7d2b5)" style="stroke: #000000; stroke-linecap: round"/>
   </g>
   <g id="patch_73">
    <path d="M 246.69953 616.874764 
Q 294.219369 623.316393 340.631307 617.024526 
" clip-path="url(#pe46dc7d2b5)" style="fill: none; stroke: #000000; stroke-linecap: round"/>
    <path d="M 336.398891 615.580002 
L 340.631307 617.024526 
L 336.936238 619.543745 
z
" clip-path="url(#pe46dc7d2b5)" style="stroke: #000000; stroke-linecap: round"/>
   </g>
   <g id="patch_74">
    <path d="M 236.882745 624.17902 
Q 231.729637 663.420357 236.73757 701.553178 
" clip-path="url(#pe46dc7d2b5)" style="fill: none; stroke: #000000; stroke-linecap: round"/>
    <path d="M 238.199701 697.326811 
L 236.73757 701.553178 
L 234.233755 697.847654 
z
" clip-path="url(#pe46dc7d2b5)" style="stroke: #000000; stroke-linecap: round"/>
   </g>
   <g id="patch_75">
    <path d="M 229.559276 709.975501 
Q 188.274981 704.505735 148.099034 709.828996 
" clip-path="url(#pe46dc7d2b5)" style="fill: none; stroke: #000000; stroke-linecap: round"/>
    <path d="M 152.32708 711.286265 
L 148.099034 709.828996 
L 151.801677 707.320922 
z
" clip-path="url(#pe46dc7d2b5)" style="stroke: #000000; stroke-linecap: round"/>
   </g>
   <g id="patch_76">
    <path d="M 246.69953 712.495317 
Q 294.219369 718.936947 340.631307 712.645079 
" clip-path="url(#pe46dc7d2b5)" style="fill: none; stroke: #000000; stroke-linecap: round"/>
    <path d="M 336.398891 711.200556 
L 340.631307 712.645079 
L 336.936238 715.164298 
z
" clip-path="url(#pe46dc7d2b5)" style="stroke: #000000; stroke-linecap: round"/>
   </g>
   <g id="patch_77">
    <path d="M 239.379484 702.658609 
Q 244.532592 663.417272 239.524659 625.28445 
" clip-path="url(#pe46dc7d2b5)" style="fill: none; stroke: #000000; stroke-linecap: round"/>
    <path d="M 238.062528 629.510817 
L 239.524659 625.28445 
L 242.028474 628.989975 
z
" clip-path="url(#pe46dc7d2b5)" style="stroke: #000000; stroke-linecap: round"/>
   </g>
   <g id="PathCollection_1">
    <defs>
     <path id="m7abfda2c74" d="M 0 8.660254 
C 2.296726 8.660254 4.499694 7.747755 6.123724 6.123724 
C 7.747755 4.499694 8.660254 2.296726 8.660254 0 
C 8.660254 -2.296726 7.747755 -4.499694 6.123724 -6.123724 
C 4.499694 -7.747755 2.296726 -8.660254 0 -8.660254 
C -2.296726 -8.660254 -4.499694 -7.747755 -6.123724 -6.123724 
C -7.747755 -4.499694 -8.660254 -2.296726 -8.660254 0 
C -8.660254 2.296726 -7.747755 4.499694 -6.123724 6.123724 
C -4.499694 7.747755 -2.296726 8.660254 0 8.660254 
z
" style="stroke: #000000"/>
    </defs>
    <g clip-path="url(#pe46dc7d2b5)">
     <use xlink:href="#m7abfda2c74" x="138.421488" y="245.078893" style="fill: #ffff00; stroke: #000000"/>
     <use xlink:href="#m7abfda2c74" x="238.131115" y="245.078893" style="fill: #ffff00; stroke: #000000"/>
     <use xlink:href="#m7abfda2c74" x="474.941479" y="245.078893" style="fill: #ffff00; stroke: #000000"/>
     <use xlink:href="#m7abfda2c74" x="599.578512" y="316.794308" style="fill: #ffff00; stroke: #000000"/>
     <use xlink:href="#m7abfda2c74" x="350.304445" y="316.794308" style="fill: #ffff00; stroke: #000000"/>
     <use xlink:href="#m7abfda2c74" x="238.131115" y="388.509723" style="fill: #ffff00; stroke: #000000"/>
     <use xlink:href="#m7abfda2c74" x="474.941479" y="460.225138" style="fill: #ffff00; stroke: #000000"/>
     <use xlink:href="#m7abfda2c74" x="350.304445" y="543.893123" style="fill: #ffff00; stroke: #000000"/>
     <use xlink:href="#m7abfda2c74" x="238.131115" y="615.608538" style="fill: #ffff00; stroke: #000000"/>
     <use xlink:href="#m7abfda2c74" x="350.304445" y="711.229091" style="fill: #ffff00; stroke: #000000"/>
    </g>
   </g>
   <g id="PathCollection_2">
    <g clip-path="url(#pe46dc7d2b5)">
     <use xlink:href="#m7abfda2c74" x="138.421488" y="161.410909" style="fill: #ffff00; stroke: #000000"/>
    </g>
   </g>
   <g id="PathCollection_3">
    <defs>
     <path id="m72200eb4df" d="M -8.660254 8.660254 
L 8.660254 8.660254 
L 8.660254 -8.660254 
L -8.660254 -8.660254 
z
" style="stroke: #000000"/>
    </defs>
    <g clip-path="url(#pe46dc7d2b5)">
     <use xlink:href="#m72200eb4df" x="474.941479" y="161.410909" style="fill: #2ca02c; stroke: #000000"/>
    </g>
   </g>
   <g id="PathCollection_4">
    <defs>
     <path id="m3e622a5102" d="M 0 12.247449 
L 12.247449 0 
L 0 -12.247449 
L -12.247449 0 
z
" style="stroke: #000000"/>
    </defs>
    <g clip-path="url(#pe46dc7d2b5)">
     <use xlink:href="#m3e622a5102" x="350.304445" y="245.078893" style="fill: #1f77b4; stroke: #000000"/>
    </g>
   </g>
   <g id="PathCollection_5">
    <g clip-path="url(#pe46dc7d2b5)">
     <use xlink:href="#m3e622a5102" x="474.941479" y="316.794308" style="fill: #1f77b4; stroke: #000000"/>
    </g>
   </g>
   <g id="PathCollection_6">
    <defs>
     <path id="mac83b18c57" d="M -4.330127 -7.5 
L -8.660254 -0 
L -4.330127 7.5 
L 4.330127 7.5 
L 8.660254 0 
L 4.330127 -7.5 
z
" style="stroke: #000000"/>
    </defs>
    <g clip-path="url(#pe46dc7d2b5)">
     <use xlink:href="#mac83b18c57" x="350.304445" y="388.509723" style="fill: #ff7f0e; stroke: #000000"/>
    </g>
   </g>
   <g id="PathCollection_7">
    <g clip-path="url(#pe46dc7d2b5)">
     <use xlink:href="#m3e622a5102" x="138.421488" y="388.509723" style="fill: #1f77b4; stroke: #000000"/>
    </g>
   </g>
   <g id="PathCollection_8">
    <g clip-path="url(#pe46dc7d2b5)">
     <use xlink:href="#m7abfda2c74" x="138.421488" y="711.229091" style="fill: #ffff00; stroke: #000000"/>
    </g>
   </g>
   <g id="PathCollection_9">
    <g clip-path="url(#pe46dc7d2b5)">
     <use xlink:href="#m7abfda2c74" x="238.131115" y="543.893123" style="fill: #ffff00; stroke: #000000"/>
    </g>
   </g>
   <g id="PathCollection_10">
    <g clip-path="url(#pe46dc7d2b5)">
     <use xlink:href="#m3e622a5102" x="474.941479" y="388.509723" style="fill: #1f77b4; stroke: #000000"/>
    </g>
   </g>
   <g id="PathCollection_11">
    <g clip-path="url(#pe46dc7d2b5)">
     <use xlink:href="#m3e622a5102" x="599.578512" y="388.509723" style="fill: #1f77b4; stroke: #000000"/>
    </g>
   </g>
   <g id="PathCollection_12">
    <g clip-path="url(#pe46dc7d2b5)">
     <use xlink:href="#m3e622a5102" x="474.941479" y="543.893123" style="fill: #1f77b4; stroke: #000000"/>
    </g>
   </g>
   <g id="PathCollection_13">
    <g clip-path="url(#pe46dc7d2b5)">
     <use xlink:href="#m3e622a5102" x="474.941479" y="711.229091" style="fill: #1f77b4; stroke: #000000"/>
    </g>
   </g>
   <g id="PathCollection_14">
    <g clip-path="url(#pe46dc7d2b5)">
     <use xlink:href="#mac83b18c57" x="350.304445" y="615.608538" style="fill: #ff7f0e; stroke: #000000"/>
    </g>
   </g>
   <g id="PathCollection_15">
    <g clip-path="url(#pe46dc7d2b5)">
     <use xlink:href="#m7abfda2c74" x="238.131115" y="711.229091" style="fill: #ffff00; stroke: #000000"/>
    </g>
   </g>
   <g id="text_1">
    <g clip-path="url(#pe46dc7d2b5)">
     <!-- 1 -->
     <g transform="translate(134.603988 164.722159) scale(0.12 -0.12)">
      <defs>
       <path id="DejaVuSans-31" d="M 794 531 
L 1825 531 
L 1825 4091 
L 703 3866 
L 703 4441 
L 1819 4666 
L 2450 4666 
L 2450 531 
L 3481 531 
L 3481 0 
L 794 0 
L 794 531 
z
" transform="scale(0.015625)"/>
      </defs>
      <use xlink:href="#DejaVuSans-31"/>
     </g>
    </g>
   </g>
   <g id="text_2">
    <g clip-path="url(#pe46dc7d2b5)">
     <!-- 2 -->
     <g transform="translate(471.123979 164.722159) scale(0.12 -0.12)">
      <defs>
       <path id="DejaVuSans-32" d="M 1228 531 
L 3431 531 
L 3431 0 
L 469 0 
L 469 531 
Q 828 903 1448 1529 
Q 2069 2156 2228 2338 
Q 2531 2678 2651 2914 
Q 2772 3150 2772 3378 
Q 2772 3750 2511 3984 
Q 2250 4219 1831 4219 
Q 1534 4219 1204 4116 
Q 875 4013 500 3803 
L 500 4441 
Q 881 4594 1212 4672 
Q 1544 4750 1819 4750 
Q 2544 4750 2975 4387 
Q 3406 4025 3406 3419 
Q 3406 3131 3298 2873 
Q 3191 2616 2906 2266 
Q 2828 2175 2409 1742 
Q 1991 1309 1228 531 
z
" transform="scale(0.015625)"/>
      </defs>
      <use xlink:href="#DejaVuSans-32"/>
     </g>
    </g>
   </g>
   <g id="text_3">
    <g clip-path="url(#pe46dc7d2b5)">
     <!-- 3 -->
     <g transform="translate(134.603988 248.390143) scale(0.12 -0.12)">
      <defs>
       <path id="DejaVuSans-33" d="M 2597 2516 
Q 3050 2419 3304 2112 
Q 3559 1806 3559 1356 
Q 3559 666 3084 287 
Q 2609 -91 1734 -91 
Q 1441 -91 1130 -33 
Q 819 25 488 141 
L 488 750 
Q 750 597 1062 519 
Q 1375 441 1716 441 
Q 2309 441 2620 675 
Q 2931 909 2931 1356 
Q 2931 1769 2642 2001 
Q 2353 2234 1838 2234 
L 1294 2234 
L 1294 2753 
L 1863 2753 
Q 2328 2753 2575 2939 
Q 2822 3125 2822 3475 
Q 2822 3834 2567 4026 
Q 2313 4219 1838 4219 
Q 1578 4219 1281 4162 
Q 984 4106 628 3988 
L 628 4550 
Q 988 4650 1302 4700 
Q 1616 4750 1894 4750 
Q 2613 4750 3031 4423 
Q 3450 4097 3450 3541 
Q 3450 3153 3228 2886 
Q 3006 2619 2597 2516 
z
" transform="scale(0.015625)"/>
      </defs>
      <use xlink:href="#DejaVuSans-33"/>
     </g>
    </g>
   </g>
   <g id="text_4">
    <g clip-path="url(#pe46dc7d2b5)">
     <!-- 4 -->
     <g transform="translate(234.313615 248.390143) scale(0.12 -0.12)">
      <defs>
       <path id="DejaVuSans-34" d="M 2419 4116 
L 825 1625 
L 2419 1625 
L 2419 4116 
z
M 2253 4666 
L 3047 4666 
L 3047 1625 
L 3713 1625 
L 3713 1100 
L 3047 1100 
L 3047 0 
L 2419 0 
L 2419 1100 
L 313 1100 
L 313 1709 
L 2253 4666 
z
" transform="scale(0.015625)"/>
      </defs>
      <use xlink:href="#DejaVuSans-34"/>
     </g>
    </g>
   </g>
   <g id="text_5">
    <g clip-path="url(#pe46dc7d2b5)">
     <!-- 5 -->
     <g transform="translate(346.486945 248.390143) scale(0.12 -0.12)">
      <defs>
       <path id="DejaVuSans-35" d="M 691 4666 
L 3169 4666 
L 3169 4134 
L 1269 4134 
L 1269 2991 
Q 1406 3038 1543 3061 
Q 1681 3084 1819 3084 
Q 2600 3084 3056 2656 
Q 3513 2228 3513 1497 
Q 3513 744 3044 326 
Q 2575 -91 1722 -91 
Q 1428 -91 1123 -41 
Q 819 9 494 109 
L 494 744 
Q 775 591 1075 516 
Q 1375 441 1709 441 
Q 2250 441 2565 725 
Q 2881 1009 2881 1497 
Q 2881 1984 2565 2268 
Q 2250 2553 1709 2553 
Q 1456 2553 1204 2497 
Q 953 2441 691 2322 
L 691 4666 
z
" transform="scale(0.015625)"/>
      </defs>
      <use xlink:href="#DejaVuSans-35"/>
     </g>
    </g>
   </g>
   <g id="text_6">
    <g clip-path="url(#pe46dc7d2b5)">
     <!-- 6 -->
     <g transform="translate(471.123979 248.390143) scale(0.12 -0.12)">
      <defs>
       <path id="DejaVuSans-36" d="M 2113 2584 
Q 1688 2584 1439 2293 
Q 1191 2003 1191 1497 
Q 1191 994 1439 701 
Q 1688 409 2113 409 
Q 2538 409 2786 701 
Q 3034 994 3034 1497 
Q 3034 2003 2786 2293 
Q 2538 2584 2113 2584 
z
M 3366 4563 
L 3366 3988 
Q 3128 4100 2886 4159 
Q 2644 4219 2406 4219 
Q 1781 4219 1451 3797 
Q 1122 3375 1075 2522 
Q 1259 2794 1537 2939 
Q 1816 3084 2150 3084 
Q 2853 3084 3261 2657 
Q 3669 2231 3669 1497 
Q 3669 778 3244 343 
Q 2819 -91 2113 -91 
Q 1303 -91 875 529 
Q 447 1150 447 2328 
Q 447 3434 972 4092 
Q 1497 4750 2381 4750 
Q 2619 4750 2861 4703 
Q 3103 4656 3366 4563 
z
" transform="scale(0.015625)"/>
      </defs>
      <use xlink:href="#DejaVuSans-36"/>
     </g>
    </g>
   </g>
   <g id="text_7">
    <g clip-path="url(#pe46dc7d2b5)">
     <!-- 7 -->
     <g transform="translate(595.761012 320.105558) scale(0.12 -0.12)">
      <defs>
       <path id="DejaVuSans-37" d="M 525 4666 
L 3525 4666 
L 3525 4397 
L 1831 0 
L 1172 0 
L 2766 4134 
L 525 4134 
L 525 4666 
z
" transform="scale(0.015625)"/>
      </defs>
      <use xlink:href="#DejaVuSans-37"/>
     </g>
    </g>
   </g>
   <g id="text_8">
    <g clip-path="url(#pe46dc7d2b5)">
     <!-- 8 -->
     <g transform="translate(471.123979 320.105558) scale(0.12 -0.12)">
      <defs>
       <path id="DejaVuSans-38" d="M 2034 2216 
Q 1584 2216 1326 1975 
Q 1069 1734 1069 1313 
Q 1069 891 1326 650 
Q 1584 409 2034 409 
Q 2484 409 2743 651 
Q 3003 894 3003 1313 
Q 3003 1734 2745 1975 
Q 2488 2216 2034 2216 
z
M 1403 2484 
Q 997 2584 770 2862 
Q 544 3141 544 3541 
Q 544 4100 942 4425 
Q 1341 4750 2034 4750 
Q 2731 4750 3128 4425 
Q 3525 4100 3525 3541 
Q 3525 3141 3298 2862 
Q 3072 2584 2669 2484 
Q 3125 2378 3379 2068 
Q 3634 1759 3634 1313 
Q 3634 634 3220 271 
Q 2806 -91 2034 -91 
Q 1263 -91 848 271 
Q 434 634 434 1313 
Q 434 1759 690 2068 
Q 947 2378 1403 2484 
z
M 1172 3481 
Q 1172 3119 1398 2916 
Q 1625 2713 2034 2713 
Q 2441 2713 2670 2916 
Q 2900 3119 2900 3481 
Q 2900 3844 2670 4047 
Q 2441 4250 2034 4250 
Q 1625 4250 1398 4047 
Q 1172 3844 1172 3481 
z
" transform="scale(0.015625)"/>
      </defs>
      <use xlink:href="#DejaVuSans-38"/>
     </g>
    </g>
   </g>
   <g id="text_9">
    <g clip-path="url(#pe46dc7d2b5)">
     <!-- 9 -->
     <g transform="translate(346.486945 320.105558) scale(0.12 -0.12)">
      <defs>
       <path id="DejaVuSans-39" d="M 703 97 
L 703 672 
Q 941 559 1184 500 
Q 1428 441 1663 441 
Q 2288 441 2617 861 
Q 2947 1281 2994 2138 
Q 2813 1869 2534 1725 
Q 2256 1581 1919 1581 
Q 1219 1581 811 2004 
Q 403 2428 403 3163 
Q 403 3881 828 4315 
Q 1253 4750 1959 4750 
Q 2769 4750 3195 4129 
Q 3622 3509 3622 2328 
Q 3622 1225 3098 567 
Q 2575 -91 1691 -91 
Q 1453 -91 1209 -44 
Q 966 3 703 97 
z
M 1959 2075 
Q 2384 2075 2632 2365 
Q 2881 2656 2881 3163 
Q 2881 3666 2632 3958 
Q 2384 4250 1959 4250 
Q 1534 4250 1286 3958 
Q 1038 3666 1038 3163 
Q 1038 2656 1286 2365 
Q 1534 2075 1959 2075 
z
" transform="scale(0.015625)"/>
      </defs>
      <use xlink:href="#DejaVuSans-39"/>
     </g>
    </g>
   </g>
   <g id="text_10">
    <g clip-path="url(#pe46dc7d2b5)">
     <!-- 10 -->
     <g transform="translate(342.669445 391.820973) scale(0.12 -0.12)">
      <defs>
       <path id="DejaVuSans-30" d="M 2034 4250 
Q 1547 4250 1301 3770 
Q 1056 3291 1056 2328 
Q 1056 1369 1301 889 
Q 1547 409 2034 409 
Q 2525 409 2770 889 
Q 3016 1369 3016 2328 
Q 3016 3291 2770 3770 
Q 2525 4250 2034 4250 
z
M 2034 4750 
Q 2819 4750 3233 4129 
Q 3647 3509 3647 2328 
Q 3647 1150 3233 529 
Q 2819 -91 2034 -91 
Q 1250 -91 836 529 
Q 422 1150 422 2328 
Q 422 3509 836 4129 
Q 1250 4750 2034 4750 
z
" transform="scale(0.015625)"/>
      </defs>
      <use xlink:href="#DejaVuSans-31"/>
      <use xlink:href="#DejaVuSans-30" x="63.623047"/>
     </g>
    </g>
   </g>
   <g id="text_11">
    <g clip-path="url(#pe46dc7d2b5)">
     <!-- 11 -->
     <g transform="translate(230.496115 391.820973) scale(0.12 -0.12)">
      <use xlink:href="#DejaVuSans-31"/>
      <use xlink:href="#DejaVuSans-31" x="63.623047"/>
     </g>
    </g>
   </g>
   <g id="text_12">
    <g clip-path="url(#pe46dc7d2b5)">
     <!-- 12 -->
     <g transform="translate(130.786488 391.820973) scale(0.12 -0.12)">
      <use xlink:href="#DejaVuSans-31"/>
      <use xlink:href="#DejaVuSans-32" x="63.623047"/>
     </g>
    </g>
   </g>
   <g id="text_13">
    <g clip-path="url(#pe46dc7d2b5)">
     <!-- 13 -->
     <g transform="translate(130.786488 714.540341) scale(0.12 -0.12)">
      <use xlink:href="#DejaVuSans-31"/>
      <use xlink:href="#DejaVuSans-33" x="63.623047"/>
     </g>
    </g>
   </g>
   <g id="text_14">
    <g clip-path="url(#pe46dc7d2b5)">
     <!-- 14 -->
     <g transform="translate(230.496115 547.204373) scale(0.12 -0.12)">
      <use xlink:href="#DejaVuSans-31"/>
      <use xlink:href="#DejaVuSans-34" x="63.623047"/>
     </g>
    </g>
   </g>
   <g id="text_15">
    <g clip-path="url(#pe46dc7d2b5)">
     <!-- 15 -->
     <g transform="translate(342.669445 547.204373) scale(0.12 -0.12)">
      <use xlink:href="#DejaVuSans-31"/>
      <use xlink:href="#DejaVuSans-35" x="63.623047"/>
     </g>
    </g>
   </g>
   <g id="text_16">
    <g clip-path="url(#pe46dc7d2b5)">
     <!-- 16 -->
     <g transform="translate(467.306479 391.820973) scale(0.12 -0.12)">
      <use xlink:href="#DejaVuSans-31"/>
      <use xlink:href="#DejaVuSans-36" x="63.623047"/>
     </g>
    </g>
   </g>
   <g id="text_17">
    <g clip-path="url(#pe46dc7d2b5)">
     <!-- 17 -->
     <g transform="translate(467.306479 463.536388) scale(0.12 -0.12)">
      <use xlink:href="#DejaVuSans-31"/>
      <use xlink:href="#DejaVuSans-37" x="63.623047"/>
     </g>
    </g>
   </g>
   <g id="text_18">
    <g clip-path="url(#pe46dc7d2b5)">
     <!-- 18 -->
     <g transform="translate(591.943512 391.820973) scale(0.12 -0.12)">
      <use xlink:href="#DejaVuSans-31"/>
      <use xlink:href="#DejaVuSans-38" x="63.623047"/>
     </g>
    </g>
   </g>
   <g id="text_19">
    <g clip-path="url(#pe46dc7d2b5)">
     <!-- 19 -->
     <g transform="translate(467.306479 547.204373) scale(0.12 -0.12)">
      <use xlink:href="#DejaVuSans-31"/>
      <use xlink:href="#DejaVuSans-39" x="63.623047"/>
     </g>
    </g>
   </g>
   <g id="text_20">
    <g clip-path="url(#pe46dc7d2b5)">
     <!-- 20 -->
     <g transform="translate(467.306479 714.540341) scale(0.12 -0.12)">
      <use xlink:href="#DejaVuSans-32"/>
      <use xlink:href="#DejaVuSans-30" x="63.623047"/>
     </g>
    </g>
   </g>
   <g id="text_21">
    <g clip-path="url(#pe46dc7d2b5)">
     <!-- 21 -->
     <g transform="translate(342.669445 714.540341) scale(0.12 -0.12)">
      <use xlink:href="#DejaVuSans-32"/>
      <use xlink:href="#DejaVuSans-31" x="63.623047"/>
     </g>
    </g>
   </g>
   <g id="text_22">
    <g clip-path="url(#pe46dc7d2b5)">
     <!-- 22 -->
     <g transform="translate(342.669445 618.919788) scale(0.12 -0.12)">
      <use xlink:href="#DejaVuSans-32"/>
      <use xlink:href="#DejaVuSans-32" x="63.623047"/>
     </g>
    </g>
   </g>
   <g id="text_23">
    <g clip-path="url(#pe46dc7d2b5)">
     <!-- 23 -->
     <g transform="translate(230.496115 618.919788) scale(0.12 -0.12)">
      <use xlink:href="#DejaVuSans-32"/>
      <use xlink:href="#DejaVuSans-33" x="63.623047"/>
     </g>
    </g>
   </g>
   <g id="text_24">
    <g clip-path="url(#pe46dc7d2b5)">
     <!-- 24 -->
     <g transform="translate(230.496115 714.540341) scale(0.12 -0.12)">
      <use xlink:href="#DejaVuSans-32"/>
      <use xlink:href="#DejaVuSans-34" x="63.623047"/>
     </g>
    </g>
   </g>
   <g id="text_25">
    <g clip-path="url(#pe46dc7d2b5)">
     <!-- 1 -->
     <g transform="translate(152.942355 146.793305) scale(0.12 -0.12)">
      <defs>
       <path id="DejaVuSans-Bold-31" d="M 750 831 
L 1813 831 
L 1813 3847 
L 722 3622 
L 722 4441 
L 1806 4666 
L 2950 4666 
L 2950 831 
L 4013 831 
L 4013 0 
L 750 0 
L 750 831 
z
" transform="scale(0.015625)"/>
      </defs>
      <use xlink:href="#DejaVuSans-Bold-31"/>
     </g>
    </g>
   </g>
   <g id="text_26">
    <g clip-path="url(#pe46dc7d2b5)">
     <!-- 2 -->
     <g transform="translate(489.462346 146.793305) scale(0.12 -0.12)">
      <defs>
       <path id="DejaVuSans-Bold-32" d="M 1844 884 
L 3897 884 
L 3897 0 
L 506 0 
L 506 884 
L 2209 2388 
Q 2438 2594 2547 2791 
Q 2656 2988 2656 3200 
Q 2656 3528 2436 3728 
Q 2216 3928 1850 3928 
Q 1569 3928 1234 3808 
Q 900 3688 519 3450 
L 519 4475 
Q 925 4609 1322 4679 
Q 1719 4750 2100 4750 
Q 2938 4750 3402 4381 
Q 3866 4013 3866 3353 
Q 3866 2972 3669 2642 
Q 3472 2313 2841 1759 
L 1844 884 
z
" transform="scale(0.015625)"/>
      </defs>
      <use xlink:href="#DejaVuSans-Bold-32"/>
     </g>
    </g>
   </g>
   <g id="text_27">
    <g clip-path="url(#pe46dc7d2b5)">
     <!-- 3 -->
     <g transform="translate(364.825312 230.46129) scale(0.12 -0.12)">
      <defs>
       <path id="DejaVuSans-Bold-33" d="M 2981 2516 
Q 3453 2394 3698 2092 
Q 3944 1791 3944 1325 
Q 3944 631 3412 270 
Q 2881 -91 1863 -91 
Q 1503 -91 1142 -33 
Q 781 25 428 141 
L 428 1069 
Q 766 900 1098 814 
Q 1431 728 1753 728 
Q 2231 728 2486 893 
Q 2741 1059 2741 1369 
Q 2741 1688 2480 1852 
Q 2219 2016 1709 2016 
L 1228 2016 
L 1228 2791 
L 1734 2791 
Q 2188 2791 2409 2933 
Q 2631 3075 2631 3366 
Q 2631 3634 2415 3781 
Q 2200 3928 1806 3928 
Q 1516 3928 1219 3862 
Q 922 3797 628 3669 
L 628 4550 
Q 984 4650 1334 4700 
Q 1684 4750 2022 4750 
Q 2931 4750 3382 4451 
Q 3834 4153 3834 3553 
Q 3834 3144 3618 2883 
Q 3403 2622 2981 2516 
z
" transform="scale(0.015625)"/>
      </defs>
      <use xlink:href="#DejaVuSans-Bold-33"/>
     </g>
    </g>
   </g>
   <g id="text_28">
    <g clip-path="url(#pe46dc7d2b5)">
     <!-- 4 -->
     <g transform="translate(489.462346 302.176705) scale(0.12 -0.12)">
      <defs>
       <path id="DejaVuSans-Bold-34" d="M 2356 3675 
L 1038 1722 
L 2356 1722 
L 2356 3675 
z
M 2156 4666 
L 3494 4666 
L 3494 1722 
L 4159 1722 
L 4159 850 
L 3494 850 
L 3494 0 
L 2356 0 
L 2356 850 
L 288 850 
L 288 1881 
L 2156 4666 
z
" transform="scale(0.015625)"/>
      </defs>
      <use xlink:href="#DejaVuSans-Bold-34"/>
     </g>
    </g>
   </g>
   <g id="text_29">
    <g clip-path="url(#pe46dc7d2b5)">
     <!-- 5 -->
     <g transform="translate(364.825312 373.89212) scale(0.12 -0.12)">
      <defs>
       <path id="DejaVuSans-Bold-35" d="M 678 4666 
L 3669 4666 
L 3669 3781 
L 1638 3781 
L 1638 3059 
Q 1775 3097 1914 3117 
Q 2053 3138 2203 3138 
Q 3056 3138 3531 2711 
Q 4006 2284 4006 1522 
Q 4006 766 3489 337 
Q 2972 -91 2053 -91 
Q 1656 -91 1267 -14 
Q 878 63 494 219 
L 494 1166 
Q 875 947 1217 837 
Q 1559 728 1863 728 
Q 2300 728 2551 942 
Q 2803 1156 2803 1522 
Q 2803 1891 2551 2103 
Q 2300 2316 1863 2316 
Q 1603 2316 1309 2248 
Q 1016 2181 678 2041 
L 678 4666 
z
" transform="scale(0.015625)"/>
      </defs>
      <use xlink:href="#DejaVuSans-Bold-35"/>
     </g>
    </g>
   </g>
   <g id="text_30">
    <g clip-path="url(#pe46dc7d2b5)">
     <!-- 6 -->
     <g transform="translate(152.942355 373.89212) scale(0.12 -0.12)">
      <defs>
       <path id="DejaVuSans-Bold-36" d="M 2316 2303 
Q 2000 2303 1842 2098 
Q 1684 1894 1684 1484 
Q 1684 1075 1842 870 
Q 2000 666 2316 666 
Q 2634 666 2792 870 
Q 2950 1075 2950 1484 
Q 2950 1894 2792 2098 
Q 2634 2303 2316 2303 
z
M 3803 4544 
L 3803 3681 
Q 3506 3822 3243 3889 
Q 2981 3956 2731 3956 
Q 2194 3956 1894 3657 
Q 1594 3359 1544 2772 
Q 1750 2925 1990 3001 
Q 2231 3078 2516 3078 
Q 3231 3078 3670 2659 
Q 4109 2241 4109 1563 
Q 4109 813 3618 361 
Q 3128 -91 2303 -91 
Q 1394 -91 895 523 
Q 397 1138 397 2266 
Q 397 3422 980 4083 
Q 1563 4744 2578 4744 
Q 2900 4744 3203 4694 
Q 3506 4644 3803 4544 
z
" transform="scale(0.015625)"/>
      </defs>
      <use xlink:href="#DejaVuSans-Bold-36"/>
     </g>
    </g>
   </g>
   <g id="text_31">
    <g clip-path="url(#pe46dc7d2b5)">
     <!-- 7 -->
     <g transform="translate(152.942355 696.611487) scale(0.12 -0.12)">
      <defs>
       <path id="DejaVuSans-Bold-37" d="M 428 4666 
L 3944 4666 
L 3944 3988 
L 2125 0 
L 953 0 
L 2675 3781 
L 428 3781 
L 428 4666 
z
" transform="scale(0.015625)"/>
      </defs>
      <use xlink:href="#DejaVuSans-Bold-37"/>
     </g>
    </g>
   </g>
   <g id="text_32">
    <g clip-path="url(#pe46dc7d2b5)">
     <!-- 8 -->
     <g transform="translate(252.651982 529.275519) scale(0.12 -0.12)">
      <defs>
       <path id="DejaVuSans-Bold-38" d="M 2228 2088 
Q 1891 2088 1709 1903 
Q 1528 1719 1528 1375 
Q 1528 1031 1709 848 
Q 1891 666 2228 666 
Q 2563 666 2741 848 
Q 2919 1031 2919 1375 
Q 2919 1722 2741 1905 
Q 2563 2088 2228 2088 
z
M 1350 2484 
Q 925 2613 709 2878 
Q 494 3144 494 3541 
Q 494 4131 934 4440 
Q 1375 4750 2228 4750 
Q 3075 4750 3515 4442 
Q 3956 4134 3956 3541 
Q 3956 3144 3739 2878 
Q 3522 2613 3097 2484 
Q 3572 2353 3814 2058 
Q 4056 1763 4056 1313 
Q 4056 619 3595 264 
Q 3134 -91 2228 -91 
Q 1319 -91 855 264 
Q 391 619 391 1313 
Q 391 1763 633 2058 
Q 875 2353 1350 2484 
z
M 1631 3419 
Q 1631 3141 1786 2991 
Q 1941 2841 2228 2841 
Q 2509 2841 2662 2991 
Q 2816 3141 2816 3419 
Q 2816 3697 2662 3845 
Q 2509 3994 2228 3994 
Q 1941 3994 1786 3844 
Q 1631 3694 1631 3419 
z
" transform="scale(0.015625)"/>
      </defs>
      <use xlink:href="#DejaVuSans-Bold-38"/>
     </g>
    </g>
   </g>
   <g id="text_33">
    <g clip-path="url(#pe46dc7d2b5)">
     <!-- 9 -->
     <g transform="translate(489.462346 373.89212) scale(0.12 -0.12)">
      <defs>
       <path id="DejaVuSans-Bold-39" d="M 641 103 
L 641 966 
Q 928 831 1190 764 
Q 1453 697 1709 697 
Q 2247 697 2547 995 
Q 2847 1294 2900 1881 
Q 2688 1725 2447 1647 
Q 2206 1569 1925 1569 
Q 1209 1569 770 1986 
Q 331 2403 331 3084 
Q 331 3838 820 4291 
Q 1309 4744 2131 4744 
Q 3044 4744 3544 4128 
Q 4044 3513 4044 2388 
Q 4044 1231 3459 570 
Q 2875 -91 1856 -91 
Q 1528 -91 1228 -42 
Q 928 6 641 103 
z
M 2125 2350 
Q 2441 2350 2600 2554 
Q 2759 2759 2759 3169 
Q 2759 3575 2600 3781 
Q 2441 3988 2125 3988 
Q 1809 3988 1650 3781 
Q 1491 3575 1491 3169 
Q 1491 2759 1650 2554 
Q 1809 2350 2125 2350 
z
" transform="scale(0.015625)"/>
      </defs>
      <use xlink:href="#DejaVuSans-Bold-39"/>
     </g>
    </g>
   </g>
   <g id="text_34">
    <g clip-path="url(#pe46dc7d2b5)">
     <!-- 10 -->
     <g transform="translate(609.924692 373.89212) scale(0.12 -0.12)">
      <defs>
       <path id="DejaVuSans-Bold-30" d="M 2944 2338 
Q 2944 3213 2780 3570 
Q 2616 3928 2228 3928 
Q 1841 3928 1675 3570 
Q 1509 3213 1509 2338 
Q 1509 1453 1675 1090 
Q 1841 728 2228 728 
Q 2613 728 2778 1090 
Q 2944 1453 2944 2338 
z
M 4147 2328 
Q 4147 1169 3647 539 
Q 3147 -91 2228 -91 
Q 1306 -91 806 539 
Q 306 1169 306 2328 
Q 306 3491 806 4120 
Q 1306 4750 2228 4750 
Q 3147 4750 3647 4120 
Q 4147 3491 4147 2328 
z
" transform="scale(0.015625)"/>
      </defs>
      <use xlink:href="#DejaVuSans-Bold-31"/>
      <use xlink:href="#DejaVuSans-Bold-30" x="69.580078"/>
     </g>
    </g>
   </g>
   <g id="text_35">
    <g clip-path="url(#pe46dc7d2b5)">
     <!-- 11 -->
     <g transform="translate(485.287659 529.275519) scale(0.12 -0.12)">
      <use xlink:href="#DejaVuSans-Bold-31"/>
      <use xlink:href="#DejaVuSans-Bold-31" x="69.580078"/>
     </g>
    </g>
   </g>
   <g id="text_36">
    <g clip-path="url(#pe46dc7d2b5)">
     <!-- 12 -->
     <g transform="translate(485.287659 696.611487) scale(0.12 -0.12)">
      <use xlink:href="#DejaVuSans-Bold-31"/>
      <use xlink:href="#DejaVuSans-Bold-32" x="69.580078"/>
     </g>
    </g>
   </g>
   <g id="text_37">
    <g clip-path="url(#pe46dc7d2b5)">
     <!-- 13 -->
     <g transform="translate(360.650625 600.990934) scale(0.12 -0.12)">
      <use xlink:href="#DejaVuSans-Bold-31"/>
      <use xlink:href="#DejaVuSans-Bold-33" x="69.580078"/>
     </g>
    </g>
   </g>
   <g id="text_38">
    <g clip-path="url(#pe46dc7d2b5)">
     <!-- 14 -->
     <g transform="translate(248.477295 696.611487) scale(0.12 -0.12)">
      <use xlink:href="#DejaVuSans-Bold-31"/>
      <use xlink:href="#DejaVuSans-Bold-34" x="69.580078"/>
     </g>
    </g>
   </g>
   <g id="legend_1">
    <g id="patch_78">
     <path d="M 522.025 170.3925 
L 641 170.3925 
Q 643 170.3925 643 168.3925 
L 643 110.68 
Q 643 108.68 641 108.68 
L 522.025 108.68 
Q 520.025 108.68 520.025 110.68 
L 520.025 168.3925 
Q 520.025 170.3925 522.025 170.3925 
z
" style="fill: #ffffff; opacity: 0.8; stroke: #cccccc; stroke-linejoin: miter"/>
    </g>
    <g id="line2d_1">
     <defs>
      <path id="mf4c55679bd" d="M 0 6 
C 1.591219 6 3.117479 5.367802 4.242641 4.242641 
C 5.367802 3.117479 6 1.591219 6 0 
C 6 -1.591219 5.367802 -3.117479 4.242641 -4.242641 
C 3.117479 -5.367802 1.591219 -6 0 -6 
C -1.591219 -6 -3.117479 -5.367802 -4.242641 -4.242641 
C -5.367802 -3.117479 -6 -1.591219 -6 0 
C -6 1.591219 -5.367802 3.117479 -4.242641 4.242641 
C -3.117479 5.367802 -1.591219 6 0 6 
z
" style="stroke: #000000"/>
     </defs>
     <g>
      <use xlink:href="#mf4c55679bd" x="534.025" y="116.778437" style="fill: #ffff00; stroke: #000000"/>
     </g>
    </g>
    <g id="text_39">
     <!-- No Load -->
     <g transform="translate(552.025 120.278437) scale(0.1 -0.1)">
      <defs>
       <path id="DejaVuSans-4e" d="M 628 4666 
L 1478 4666 
L 3547 763 
L 3547 4666 
L 4159 4666 
L 4159 0 
L 3309 0 
L 1241 3903 
L 1241 0 
L 628 0 
L 628 4666 
z
" transform="scale(0.015625)"/>
       <path id="DejaVuSans-6f" d="M 1959 3097 
Q 1497 3097 1228 2736 
Q 959 2375 959 1747 
Q 959 1119 1226 758 
Q 1494 397 1959 397 
Q 2419 397 2687 759 
Q 2956 1122 2956 1747 
Q 2956 2369 2687 2733 
Q 2419 3097 1959 3097 
z
M 1959 3584 
Q 2709 3584 3137 3096 
Q 3566 2609 3566 1747 
Q 3566 888 3137 398 
Q 2709 -91 1959 -91 
Q 1206 -91 779 398 
Q 353 888 353 1747 
Q 353 2609 779 3096 
Q 1206 3584 1959 3584 
z
" transform="scale(0.015625)"/>
       <path id="DejaVuSans-20" transform="scale(0.015625)"/>
       <path id="DejaVuSans-4c" d="M 628 4666 
L 1259 4666 
L 1259 531 
L 3531 531 
L 3531 0 
L 628 0 
L 628 4666 
z
" transform="scale(0.015625)"/>
       <path id="DejaVuSans-61" d="M 2194 1759 
Q 1497 1759 1228 1600 
Q 959 1441 959 1056 
Q 959 750 1161 570 
Q 1363 391 1709 391 
Q 2188 391 2477 730 
Q 2766 1069 2766 1631 
L 2766 1759 
L 2194 1759 
z
M 3341 1997 
L 3341 0 
L 2766 0 
L 2766 531 
Q 2569 213 2275 61 
Q 1981 -91 1556 -91 
Q 1019 -91 701 211 
Q 384 513 384 1019 
Q 384 1609 779 1909 
Q 1175 2209 1959 2209 
L 2766 2209 
L 2766 2266 
Q 2766 2663 2505 2880 
Q 2244 3097 1772 3097 
Q 1472 3097 1187 3025 
Q 903 2953 641 2809 
L 641 3341 
Q 956 3463 1253 3523 
Q 1550 3584 1831 3584 
Q 2591 3584 2966 3190 
Q 3341 2797 3341 1997 
z
" transform="scale(0.015625)"/>
       <path id="DejaVuSans-64" d="M 2906 2969 
L 2906 4863 
L 3481 4863 
L 3481 0 
L 2906 0 
L 2906 525 
Q 2725 213 2448 61 
Q 2172 -91 1784 -91 
Q 1150 -91 751 415 
Q 353 922 353 1747 
Q 353 2572 751 3078 
Q 1150 3584 1784 3584 
Q 2172 3584 2448 3432 
Q 2725 3281 2906 2969 
z
M 947 1747 
Q 947 1113 1208 752 
Q 1469 391 1925 391 
Q 2381 391 2643 752 
Q 2906 1113 2906 1747 
Q 2906 2381 2643 2742 
Q 2381 3103 1925 3103 
Q 1469 3103 1208 2742 
Q 947 2381 947 1747 
z
" transform="scale(0.015625)"/>
      </defs>
      <use xlink:href="#DejaVuSans-4e"/>
      <use xlink:href="#DejaVuSans-6f" x="74.804688"/>
      <use xlink:href="#DejaVuSans-20" x="135.986328"/>
      <use xlink:href="#DejaVuSans-4c" x="167.773438"/>
      <use xlink:href="#DejaVuSans-6f" x="221.736328"/>
      <use xlink:href="#DejaVuSans-61" x="282.917969"/>
      <use xlink:href="#DejaVuSans-64" x="344.197266"/>
     </g>
    </g>
    <g id="line2d_2">
     <defs>
      <path id="me805dcf4b4" d="M 0 7.071068 
L 7.071068 0 
L 0 -7.071068 
L -7.071068 0 
z
" style="stroke: #000000; stroke-linejoin: miter"/>
     </defs>
     <g>
      <use xlink:href="#me805dcf4b4" x="534.025" y="131.456562" style="fill: #1f77b4; stroke: #000000; stroke-linejoin: miter"/>
     </g>
    </g>
    <g id="text_40">
     <!-- Residential Load -->
     <g transform="translate(552.025 134.956562) scale(0.1 -0.1)">
      <defs>
       <path id="DejaVuSans-52" d="M 2841 2188 
Q 3044 2119 3236 1894 
Q 3428 1669 3622 1275 
L 4263 0 
L 3584 0 
L 2988 1197 
Q 2756 1666 2539 1819 
Q 2322 1972 1947 1972 
L 1259 1972 
L 1259 0 
L 628 0 
L 628 4666 
L 2053 4666 
Q 2853 4666 3247 4331 
Q 3641 3997 3641 3322 
Q 3641 2881 3436 2590 
Q 3231 2300 2841 2188 
z
M 1259 4147 
L 1259 2491 
L 2053 2491 
Q 2509 2491 2742 2702 
Q 2975 2913 2975 3322 
Q 2975 3731 2742 3939 
Q 2509 4147 2053 4147 
L 1259 4147 
z
" transform="scale(0.015625)"/>
       <path id="DejaVuSans-65" d="M 3597 1894 
L 3597 1613 
L 953 1613 
Q 991 1019 1311 708 
Q 1631 397 2203 397 
Q 2534 397 2845 478 
Q 3156 559 3463 722 
L 3463 178 
Q 3153 47 2828 -22 
Q 2503 -91 2169 -91 
Q 1331 -91 842 396 
Q 353 884 353 1716 
Q 353 2575 817 3079 
Q 1281 3584 2069 3584 
Q 2775 3584 3186 3129 
Q 3597 2675 3597 1894 
z
M 3022 2063 
Q 3016 2534 2758 2815 
Q 2500 3097 2075 3097 
Q 1594 3097 1305 2825 
Q 1016 2553 972 2059 
L 3022 2063 
z
" transform="scale(0.015625)"/>
       <path id="DejaVuSans-73" d="M 2834 3397 
L 2834 2853 
Q 2591 2978 2328 3040 
Q 2066 3103 1784 3103 
Q 1356 3103 1142 2972 
Q 928 2841 928 2578 
Q 928 2378 1081 2264 
Q 1234 2150 1697 2047 
L 1894 2003 
Q 2506 1872 2764 1633 
Q 3022 1394 3022 966 
Q 3022 478 2636 193 
Q 2250 -91 1575 -91 
Q 1294 -91 989 -36 
Q 684 19 347 128 
L 347 722 
Q 666 556 975 473 
Q 1284 391 1588 391 
Q 1994 391 2212 530 
Q 2431 669 2431 922 
Q 2431 1156 2273 1281 
Q 2116 1406 1581 1522 
L 1381 1569 
Q 847 1681 609 1914 
Q 372 2147 372 2553 
Q 372 3047 722 3315 
Q 1072 3584 1716 3584 
Q 2034 3584 2315 3537 
Q 2597 3491 2834 3397 
z
" transform="scale(0.015625)"/>
       <path id="DejaVuSans-69" d="M 603 3500 
L 1178 3500 
L 1178 0 
L 603 0 
L 603 3500 
z
M 603 4863 
L 1178 4863 
L 1178 4134 
L 603 4134 
L 603 4863 
z
" transform="scale(0.015625)"/>
       <path id="DejaVuSans-6e" d="M 3513 2113 
L 3513 0 
L 2938 0 
L 2938 2094 
Q 2938 2591 2744 2837 
Q 2550 3084 2163 3084 
Q 1697 3084 1428 2787 
Q 1159 2491 1159 1978 
L 1159 0 
L 581 0 
L 581 3500 
L 1159 3500 
L 1159 2956 
Q 1366 3272 1645 3428 
Q 1925 3584 2291 3584 
Q 2894 3584 3203 3211 
Q 3513 2838 3513 2113 
z
" transform="scale(0.015625)"/>
       <path id="DejaVuSans-74" d="M 1172 4494 
L 1172 3500 
L 2356 3500 
L 2356 3053 
L 1172 3053 
L 1172 1153 
Q 1172 725 1289 603 
Q 1406 481 1766 481 
L 2356 481 
L 2356 0 
L 1766 0 
Q 1100 0 847 248 
Q 594 497 594 1153 
L 594 3053 
L 172 3053 
L 172 3500 
L 594 3500 
L 594 4494 
L 1172 4494 
z
" transform="scale(0.015625)"/>
       <path id="DejaVuSans-6c" d="M 603 4863 
L 1178 4863 
L 1178 0 
L 603 0 
L 603 4863 
z
" transform="scale(0.015625)"/>
      </defs>
      <use xlink:href="#DejaVuSans-52"/>
      <use xlink:href="#DejaVuSans-65" x="64.982422"/>
      <use xlink:href="#DejaVuSans-73" x="126.505859"/>
      <use xlink:href="#DejaVuSans-69" x="178.605469"/>
      <use xlink:href="#DejaVuSans-64" x="206.388672"/>
      <use xlink:href="#DejaVuSans-65" x="269.865234"/>
      <use xlink:href="#DejaVuSans-6e" x="331.388672"/>
      <use xlink:href="#DejaVuSans-74" x="394.767578"/>
      <use xlink:href="#DejaVuSans-69" x="433.976562"/>
      <use xlink:href="#DejaVuSans-61" x="461.759766"/>
      <use xlink:href="#DejaVuSans-6c" x="523.039062"/>
      <use xlink:href="#DejaVuSans-20" x="550.822266"/>
      <use xlink:href="#DejaVuSans-4c" x="582.609375"/>
      <use xlink:href="#DejaVuSans-6f" x="636.572266"/>
      <use xlink:href="#DejaVuSans-61" x="697.753906"/>
      <use xlink:href="#DejaVuSans-64" x="759.033203"/>
     </g>
    </g>
    <g id="line2d_3">
     <defs>
      <path id="m4f4c32dd1b" d="M -3.75 -6.495191 
L -7.5 -0 
L -3.75 6.495191 
L 3.75 6.495191 
L 7.5 0 
L 3.75 -6.495191 
z
" style="stroke: #000000; stroke-linejoin: miter"/>
     </defs>
     <g>
      <use xlink:href="#m4f4c32dd1b" x="534.025" y="146.134687" style="fill: #ff7f0e; stroke: #000000; stroke-linejoin: miter"/>
     </g>
    </g>
    <g id="text_41">
     <!-- Commercial Load -->
     <g transform="translate(552.025 149.634687) scale(0.1 -0.1)">
      <defs>
       <path id="DejaVuSans-43" d="M 4122 4306 
L 4122 3641 
Q 3803 3938 3442 4084 
Q 3081 4231 2675 4231 
Q 1875 4231 1450 3742 
Q 1025 3253 1025 2328 
Q 1025 1406 1450 917 
Q 1875 428 2675 428 
Q 3081 428 3442 575 
Q 3803 722 4122 1019 
L 4122 359 
Q 3791 134 3420 21 
Q 3050 -91 2638 -91 
Q 1578 -91 968 557 
Q 359 1206 359 2328 
Q 359 3453 968 4101 
Q 1578 4750 2638 4750 
Q 3056 4750 3426 4639 
Q 3797 4528 4122 4306 
z
" transform="scale(0.015625)"/>
       <path id="DejaVuSans-6d" d="M 3328 2828 
Q 3544 3216 3844 3400 
Q 4144 3584 4550 3584 
Q 5097 3584 5394 3201 
Q 5691 2819 5691 2113 
L 5691 0 
L 5113 0 
L 5113 2094 
Q 5113 2597 4934 2840 
Q 4756 3084 4391 3084 
Q 3944 3084 3684 2787 
Q 3425 2491 3425 1978 
L 3425 0 
L 2847 0 
L 2847 2094 
Q 2847 2600 2669 2842 
Q 2491 3084 2119 3084 
Q 1678 3084 1418 2786 
Q 1159 2488 1159 1978 
L 1159 0 
L 581 0 
L 581 3500 
L 1159 3500 
L 1159 2956 
Q 1356 3278 1631 3431 
Q 1906 3584 2284 3584 
Q 2666 3584 2933 3390 
Q 3200 3197 3328 2828 
z
" transform="scale(0.015625)"/>
       <path id="DejaVuSans-72" d="M 2631 2963 
Q 2534 3019 2420 3045 
Q 2306 3072 2169 3072 
Q 1681 3072 1420 2755 
Q 1159 2438 1159 1844 
L 1159 0 
L 581 0 
L 581 3500 
L 1159 3500 
L 1159 2956 
Q 1341 3275 1631 3429 
Q 1922 3584 2338 3584 
Q 2397 3584 2469 3576 
Q 2541 3569 2628 3553 
L 2631 2963 
z
" transform="scale(0.015625)"/>
       <path id="DejaVuSans-63" d="M 3122 3366 
L 3122 2828 
Q 2878 2963 2633 3030 
Q 2388 3097 2138 3097 
Q 1578 3097 1268 2742 
Q 959 2388 959 1747 
Q 959 1106 1268 751 
Q 1578 397 2138 397 
Q 2388 397 2633 464 
Q 2878 531 3122 666 
L 3122 134 
Q 2881 22 2623 -34 
Q 2366 -91 2075 -91 
Q 1284 -91 818 406 
Q 353 903 353 1747 
Q 353 2603 823 3093 
Q 1294 3584 2113 3584 
Q 2378 3584 2631 3529 
Q 2884 3475 3122 3366 
z
" transform="scale(0.015625)"/>
      </defs>
      <use xlink:href="#DejaVuSans-43"/>
      <use xlink:href="#DejaVuSans-6f" x="69.824219"/>
      <use xlink:href="#DejaVuSans-6d" x="131.005859"/>
      <use xlink:href="#DejaVuSans-6d" x="228.417969"/>
      <use xlink:href="#DejaVuSans-65" x="325.830078"/>
      <use xlink:href="#DejaVuSans-72" x="387.353516"/>
      <use xlink:href="#DejaVuSans-63" x="426.216797"/>
      <use xlink:href="#DejaVuSans-69" x="481.197266"/>
      <use xlink:href="#DejaVuSans-61" x="508.980469"/>
      <use xlink:href="#DejaVuSans-6c" x="570.259766"/>
      <use xlink:href="#DejaVuSans-20" x="598.042969"/>
      <use xlink:href="#DejaVuSans-4c" x="629.830078"/>
      <use xlink:href="#DejaVuSans-6f" x="683.792969"/>
      <use xlink:href="#DejaVuSans-61" x="744.974609"/>
      <use xlink:href="#DejaVuSans-64" x="806.253906"/>
     </g>
    </g>
    <g id="line2d_4">
     <defs>
      <path id="md6acee4765" d="M -6 6 
L 6 6 
L 6 -6 
L -6 -6 
z
" style="stroke: #000000; stroke-linejoin: miter"/>
     </defs>
     <g>
      <use xlink:href="#md6acee4765" x="534.025" y="160.812812" style="fill: #2ca02c; stroke: #000000; stroke-linejoin: miter"/>
     </g>
    </g>
    <g id="text_42">
     <!-- Industrial Load -->
     <g transform="translate(552.025 164.312812) scale(0.1 -0.1)">
      <defs>
       <path id="DejaVuSans-49" d="M 628 4666 
L 1259 4666 
L 1259 0 
L 628 0 
L 628 4666 
z
" transform="scale(0.015625)"/>
       <path id="DejaVuSans-75" d="M 544 1381 
L 544 3500 
L 1119 3500 
L 1119 1403 
Q 1119 906 1312 657 
Q 1506 409 1894 409 
Q 2359 409 2629 706 
Q 2900 1003 2900 1516 
L 2900 3500 
L 3475 3500 
L 3475 0 
L 2900 0 
L 2900 538 
Q 2691 219 2414 64 
Q 2138 -91 1772 -91 
Q 1169 -91 856 284 
Q 544 659 544 1381 
z
M 1991 3584 
L 1991 3584 
z
" transform="scale(0.015625)"/>
      </defs>
      <use xlink:href="#DejaVuSans-49"/>
      <use xlink:href="#DejaVuSans-6e" x="29.492188"/>
      <use xlink:href="#DejaVuSans-64" x="92.871094"/>
      <use xlink:href="#DejaVuSans-75" x="156.347656"/>
      <use xlink:href="#DejaVuSans-73" x="219.726562"/>
      <use xlink:href="#DejaVuSans-74" x="271.826172"/>
      <use xlink:href="#DejaVuSans-72" x="311.035156"/>
      <use xlink:href="#DejaVuSans-69" x="352.148438"/>
      <use xlink:href="#DejaVuSans-61" x="379.931641"/>
      <use xlink:href="#DejaVuSans-6c" x="441.210938"/>
      <use xlink:href="#DejaVuSans-20" x="468.994141"/>
      <use xlink:href="#DejaVuSans-4c" x="500.78125"/>
      <use xlink:href="#DejaVuSans-6f" x="554.744141"/>
      <use xlink:href="#DejaVuSans-61" x="615.925781"/>
      <use xlink:href="#DejaVuSans-64" x="677.205078"/>
     </g>
    </g>
   </g>
  </g>
 </g>
 <defs>
  <clipPath id="pe46dc7d2b5">
   <rect x="90" y="103.68" width="558" height="665.28"/>
  </clipPath>
 </defs>
</svg>
