<?xml version="1.0" encoding="utf-8" standalone="no"?>
<!DOCTYPE svg PUBLIC "-//W3C//DTD SVG 1.1//EN"
  "http://www.w3.org/Graphics/SVG/1.1/DTD/svg11.dtd">
<svg xmlns:xlink="http://www.w3.org/1999/xlink" width="460.8pt" height="345.6pt" viewBox="0 0 460.8 345.6" xmlns="http://www.w3.org/2000/svg" version="1.1">
 <metadata>
  <rdf:RDF xmlns:dc="http://purl.org/dc/elements/1.1/" xmlns:cc="http://creativecommons.org/ns#" xmlns:rdf="http://www.w3.org/1999/02/22-rdf-syntax-ns#">
   <cc:Work>
    <dc:type rdf:resource="http://purl.org/dc/dcmitype/StillImage"/>
    <dc:date>2023-06-19T13:06:12.073037</dc:date>
    <dc:format>image/svg+xml</dc:format>
    <dc:creator>
     <cc:Agent>
      <dc:title>Matplotlib v3.7.1, https://matplotlib.org/</dc:title>
     </cc:Agent>
    </dc:creator>
   </cc:Work>
  </rdf:RDF>
 </metadata>
 <defs>
  <style type="text/css">*{stroke-linejoin: round; stroke-linecap: butt}</style>
 </defs>
 <g id="figure_1">
  <g id="patch_1">
   <path d="M 0 345.6 
L 460.8 345.6 
L 460.8 0 
L 0 0 
z
" style="fill: #ffffff"/>
  </g>
  <g id="axes_1">
   <g id="patch_2">
    <path d="M 57.6 307.584 
L 414.72 307.584 
L 414.72 41.472 
L 57.6 41.472 
z
" style="fill: #ffffff"/>
   </g>
   <g id="matplotlib.axis_1">
    <g id="xtick_1">
     <g id="line2d_1">
      <path d="M 73.520987 307.584 
L 73.520987 41.472 
" clip-path="url(#pcf9e2f66cc)" style="fill: none; stroke: #b0b0b0; stroke-width: 0.8; stroke-linecap: square"/>
     </g>
     <g id="line2d_2">
      <defs>
       <path id="ma02ceb7c5b" d="M 0 0 
L 0 3.5 
" style="stroke: #000000; stroke-width: 0.8"/>
      </defs>
      <g>
       <use xlink:href="#ma02ceb7c5b" x="73.520987" y="307.584" style="stroke: #000000; stroke-width: 0.8"/>
      </g>
     </g>
     <g id="text_1">
      <!-- 0k -->
      <g transform="translate(67.444425 322.182437) scale(0.1 -0.1)">
       <defs>
        <path id="DejaVuSans-30" d="M 2034 4250 
Q 1547 4250 1301 3770 
Q 1056 3291 1056 2328 
Q 1056 1369 1301 889 
Q 1547 409 2034 409 
Q 2525 409 2770 889 
Q 3016 1369 3016 2328 
Q 3016 3291 2770 3770 
Q 2525 4250 2034 4250 
z
M 2034 4750 
Q 2819 4750 3233 4129 
Q 3647 3509 3647 2328 
Q 3647 1150 3233 529 
Q 2819 -91 2034 -91 
Q 1250 -91 836 529 
Q 422 1150 422 2328 
Q 422 3509 836 4129 
Q 1250 4750 2034 4750 
z
" transform="scale(0.015625)"/>
        <path id="DejaVuSans-6b" d="M 581 4863 
L 1159 4863 
L 1159 1991 
L 2875 3500 
L 3609 3500 
L 1753 1863 
L 3688 0 
L 2938 0 
L 1159 1709 
L 1159 0 
L 581 0 
L 581 4863 
z
" transform="scale(0.015625)"/>
       </defs>
       <use xlink:href="#DejaVuSans-30"/>
       <use xlink:href="#DejaVuSans-6b" x="63.623047"/>
      </g>
     </g>
    </g>
    <g id="xtick_2">
     <g id="line2d_3">
      <path d="M 138.466834 307.584 
L 138.466834 41.472 
" clip-path="url(#pcf9e2f66cc)" style="fill: none; stroke: #b0b0b0; stroke-width: 0.8; stroke-linecap: square"/>
     </g>
     <g id="line2d_4">
      <g>
       <use xlink:href="#ma02ceb7c5b" x="138.466834" y="307.584" style="stroke: #000000; stroke-width: 0.8"/>
      </g>
     </g>
     <g id="text_2">
      <!-- 20k -->
      <g transform="translate(129.209021 322.182437) scale(0.1 -0.1)">
       <defs>
        <path id="DejaVuSans-32" d="M 1228 531 
L 3431 531 
L 3431 0 
L 469 0 
L 469 531 
Q 828 903 1448 1529 
Q 2069 2156 2228 2338 
Q 2531 2678 2651 2914 
Q 2772 3150 2772 3378 
Q 2772 3750 2511 3984 
Q 2250 4219 1831 4219 
Q 1534 4219 1204 4116 
Q 875 4013 500 3803 
L 500 4441 
Q 881 4594 1212 4672 
Q 1544 4750 1819 4750 
Q 2544 4750 2975 4387 
Q 3406 4025 3406 3419 
Q 3406 3131 3298 2873 
Q 3191 2616 2906 2266 
Q 2828 2175 2409 1742 
Q 1991 1309 1228 531 
z
" transform="scale(0.015625)"/>
       </defs>
       <use xlink:href="#DejaVuSans-32"/>
       <use xlink:href="#DejaVuSans-30" x="63.623047"/>
       <use xlink:href="#DejaVuSans-6b" x="127.246094"/>
      </g>
     </g>
    </g>
    <g id="xtick_3">
     <g id="line2d_5">
      <path d="M 203.41268 307.584 
L 203.41268 41.472 
" clip-path="url(#pcf9e2f66cc)" style="fill: none; stroke: #b0b0b0; stroke-width: 0.8; stroke-linecap: square"/>
     </g>
     <g id="line2d_6">
      <g>
       <use xlink:href="#ma02ceb7c5b" x="203.41268" y="307.584" style="stroke: #000000; stroke-width: 0.8"/>
      </g>
     </g>
     <g id="text_3">
      <!-- 40k -->
      <g transform="translate(194.154868 322.182437) scale(0.1 -0.1)">
       <defs>
        <path id="DejaVuSans-34" d="M 2419 4116 
L 825 1625 
L 2419 1625 
L 2419 4116 
z
M 2253 4666 
L 3047 4666 
L 3047 1625 
L 3713 1625 
L 3713 1100 
L 3047 1100 
L 3047 0 
L 2419 0 
L 2419 1100 
L 313 1100 
L 313 1709 
L 2253 4666 
z
" transform="scale(0.015625)"/>
       </defs>
       <use xlink:href="#DejaVuSans-34"/>
       <use xlink:href="#DejaVuSans-30" x="63.623047"/>
       <use xlink:href="#DejaVuSans-6b" x="127.246094"/>
      </g>
     </g>
    </g>
    <g id="xtick_4">
     <g id="line2d_7">
      <path d="M 268.358527 307.584 
L 268.358527 41.472 
" clip-path="url(#pcf9e2f66cc)" style="fill: none; stroke: #b0b0b0; stroke-width: 0.8; stroke-linecap: square"/>
     </g>
     <g id="line2d_8">
      <g>
       <use xlink:href="#ma02ceb7c5b" x="268.358527" y="307.584" style="stroke: #000000; stroke-width: 0.8"/>
      </g>
     </g>
     <g id="text_4">
      <!-- 60k -->
      <g transform="translate(259.100715 322.182437) scale(0.1 -0.1)">
       <defs>
        <path id="DejaVuSans-36" d="M 2113 2584 
Q 1688 2584 1439 2293 
Q 1191 2003 1191 1497 
Q 1191 994 1439 701 
Q 1688 409 2113 409 
Q 2538 409 2786 701 
Q 3034 994 3034 1497 
Q 3034 2003 2786 2293 
Q 2538 2584 2113 2584 
z
M 3366 4563 
L 3366 3988 
Q 3128 4100 2886 4159 
Q 2644 4219 2406 4219 
Q 1781 4219 1451 3797 
Q 1122 3375 1075 2522 
Q 1259 2794 1537 2939 
Q 1816 3084 2150 3084 
Q 2853 3084 3261 2657 
Q 3669 2231 3669 1497 
Q 3669 778 3244 343 
Q 2819 -91 2113 -91 
Q 1303 -91 875 529 
Q 447 1150 447 2328 
Q 447 3434 972 4092 
Q 1497 4750 2381 4750 
Q 2619 4750 2861 4703 
Q 3103 4656 3366 4563 
z
" transform="scale(0.015625)"/>
       </defs>
       <use xlink:href="#DejaVuSans-36"/>
       <use xlink:href="#DejaVuSans-30" x="63.623047"/>
       <use xlink:href="#DejaVuSans-6b" x="127.246094"/>
      </g>
     </g>
    </g>
    <g id="xtick_5">
     <g id="line2d_9">
      <path d="M 333.304374 307.584 
L 333.304374 41.472 
" clip-path="url(#pcf9e2f66cc)" style="fill: none; stroke: #b0b0b0; stroke-width: 0.8; stroke-linecap: square"/>
     </g>
     <g id="line2d_10">
      <g>
       <use xlink:href="#ma02ceb7c5b" x="333.304374" y="307.584" style="stroke: #000000; stroke-width: 0.8"/>
      </g>
     </g>
     <g id="text_5">
      <!-- 80k -->
      <g transform="translate(324.046561 322.182437) scale(0.1 -0.1)">
       <defs>
        <path id="DejaVuSans-38" d="M 2034 2216 
Q 1584 2216 1326 1975 
Q 1069 1734 1069 1313 
Q 1069 891 1326 650 
Q 1584 409 2034 409 
Q 2484 409 2743 651 
Q 3003 894 3003 1313 
Q 3003 1734 2745 1975 
Q 2488 2216 2034 2216 
z
M 1403 2484 
Q 997 2584 770 2862 
Q 544 3141 544 3541 
Q 544 4100 942 4425 
Q 1341 4750 2034 4750 
Q 2731 4750 3128 4425 
Q 3525 4100 3525 3541 
Q 3525 3141 3298 2862 
Q 3072 2584 2669 2484 
Q 3125 2378 3379 2068 
Q 3634 1759 3634 1313 
Q 3634 634 3220 271 
Q 2806 -91 2034 -91 
Q 1263 -91 848 271 
Q 434 634 434 1313 
Q 434 1759 690 2068 
Q 947 2378 1403 2484 
z
M 1172 3481 
Q 1172 3119 1398 2916 
Q 1625 2713 2034 2713 
Q 2441 2713 2670 2916 
Q 2900 3119 2900 3481 
Q 2900 3844 2670 4047 
Q 2441 4250 2034 4250 
Q 1625 4250 1398 4047 
Q 1172 3844 1172 3481 
z
" transform="scale(0.015625)"/>
       </defs>
       <use xlink:href="#DejaVuSans-38"/>
       <use xlink:href="#DejaVuSans-30" x="63.623047"/>
       <use xlink:href="#DejaVuSans-6b" x="127.246094"/>
      </g>
     </g>
    </g>
    <g id="xtick_6">
     <g id="line2d_11">
      <path d="M 398.25022 307.584 
L 398.25022 41.472 
" clip-path="url(#pcf9e2f66cc)" style="fill: none; stroke: #b0b0b0; stroke-width: 0.8; stroke-linecap: square"/>
     </g>
     <g id="line2d_12">
      <g>
       <use xlink:href="#ma02ceb7c5b" x="398.25022" y="307.584" style="stroke: #000000; stroke-width: 0.8"/>
      </g>
     </g>
     <g id="text_6">
      <!-- 100k -->
      <g transform="translate(385.811158 322.182437) scale(0.1 -0.1)">
       <defs>
        <path id="DejaVuSans-31" d="M 794 531 
L 1825 531 
L 1825 4091 
L 703 3866 
L 703 4441 
L 1819 4666 
L 2450 4666 
L 2450 531 
L 3481 531 
L 3481 0 
L 794 0 
L 794 531 
z
" transform="scale(0.015625)"/>
       </defs>
       <use xlink:href="#DejaVuSans-31"/>
       <use xlink:href="#DejaVuSans-30" x="63.623047"/>
       <use xlink:href="#DejaVuSans-30" x="127.246094"/>
       <use xlink:href="#DejaVuSans-6b" x="190.869141"/>
      </g>
     </g>
    </g>
    <g id="text_7">
     <!-- Step -->
     <g transform="translate(224.774844 335.860562) scale(0.1 -0.1)">
      <defs>
       <path id="DejaVuSans-53" d="M 3425 4513 
L 3425 3897 
Q 3066 4069 2747 4153 
Q 2428 4238 2131 4238 
Q 1616 4238 1336 4038 
Q 1056 3838 1056 3469 
Q 1056 3159 1242 3001 
Q 1428 2844 1947 2747 
L 2328 2669 
Q 3034 2534 3370 2195 
Q 3706 1856 3706 1288 
Q 3706 609 3251 259 
Q 2797 -91 1919 -91 
Q 1588 -91 1214 -16 
Q 841 59 441 206 
L 441 856 
Q 825 641 1194 531 
Q 1563 422 1919 422 
Q 2459 422 2753 634 
Q 3047 847 3047 1241 
Q 3047 1584 2836 1778 
Q 2625 1972 2144 2069 
L 1759 2144 
Q 1053 2284 737 2584 
Q 422 2884 422 3419 
Q 422 4038 858 4394 
Q 1294 4750 2059 4750 
Q 2388 4750 2728 4690 
Q 3069 4631 3425 4513 
z
" transform="scale(0.015625)"/>
       <path id="DejaVuSans-74" d="M 1172 4494 
L 1172 3500 
L 2356 3500 
L 2356 3053 
L 1172 3053 
L 1172 1153 
Q 1172 725 1289 603 
Q 1406 481 1766 481 
L 2356 481 
L 2356 0 
L 1766 0 
Q 1100 0 847 248 
Q 594 497 594 1153 
L 594 3053 
L 172 3053 
L 172 3500 
L 594 3500 
L 594 4494 
L 1172 4494 
z
" transform="scale(0.015625)"/>
       <path id="DejaVuSans-65" d="M 3597 1894 
L 3597 1613 
L 953 1613 
Q 991 1019 1311 708 
Q 1631 397 2203 397 
Q 2534 397 2845 478 
Q 3156 559 3463 722 
L 3463 178 
Q 3153 47 2828 -22 
Q 2503 -91 2169 -91 
Q 1331 -91 842 396 
Q 353 884 353 1716 
Q 353 2575 817 3079 
Q 1281 3584 2069 3584 
Q 2775 3584 3186 3129 
Q 3597 2675 3597 1894 
z
M 3022 2063 
Q 3016 2534 2758 2815 
Q 2500 3097 2075 3097 
Q 1594 3097 1305 2825 
Q 1016 2553 972 2059 
L 3022 2063 
z
" transform="scale(0.015625)"/>
       <path id="DejaVuSans-70" d="M 1159 525 
L 1159 -1331 
L 581 -1331 
L 581 3500 
L 1159 3500 
L 1159 2969 
Q 1341 3281 1617 3432 
Q 1894 3584 2278 3584 
Q 2916 3584 3314 3078 
Q 3713 2572 3713 1747 
Q 3713 922 3314 415 
Q 2916 -91 2278 -91 
Q 1894 -91 1617 61 
Q 1341 213 1159 525 
z
M 3116 1747 
Q 3116 2381 2855 2742 
Q 2594 3103 2138 3103 
Q 1681 3103 1420 2742 
Q 1159 2381 1159 1747 
Q 1159 1113 1420 752 
Q 1681 391 2138 391 
Q 2594 391 2855 752 
Q 3116 1113 3116 1747 
z
" transform="scale(0.015625)"/>
      </defs>
      <use xlink:href="#DejaVuSans-53"/>
      <use xlink:href="#DejaVuSans-74" x="63.476562"/>
      <use xlink:href="#DejaVuSans-65" x="102.685547"/>
      <use xlink:href="#DejaVuSans-70" x="164.208984"/>
     </g>
    </g>
   </g>
   <g id="matplotlib.axis_2">
    <g id="ytick_1">
     <g id="line2d_13">
      <path d="M 57.6 291.055113 
L 414.72 291.055113 
" clip-path="url(#pcf9e2f66cc)" style="fill: none; stroke: #b0b0b0; stroke-width: 0.8; stroke-linecap: square"/>
     </g>
     <g id="line2d_14">
      <defs>
       <path id="m3ede4bc50f" d="M 0 0 
L -3.5 0 
" style="stroke: #000000; stroke-width: 0.8"/>
      </defs>
      <g>
       <use xlink:href="#m3ede4bc50f" x="57.6" y="291.055113" style="stroke: #000000; stroke-width: 0.8"/>
      </g>
     </g>
     <g id="text_8">
      <!-- −350 -->
      <g transform="translate(23.132812 294.854332) scale(0.1 -0.1)">
       <defs>
        <path id="DejaVuSans-2212" d="M 678 2272 
L 4684 2272 
L 4684 1741 
L 678 1741 
L 678 2272 
z
" transform="scale(0.015625)"/>
        <path id="DejaVuSans-33" d="M 2597 2516 
Q 3050 2419 3304 2112 
Q 3559 1806 3559 1356 
Q 3559 666 3084 287 
Q 2609 -91 1734 -91 
Q 1441 -91 1130 -33 
Q 819 25 488 141 
L 488 750 
Q 750 597 1062 519 
Q 1375 441 1716 441 
Q 2309 441 2620 675 
Q 2931 909 2931 1356 
Q 2931 1769 2642 2001 
Q 2353 2234 1838 2234 
L 1294 2234 
L 1294 2753 
L 1863 2753 
Q 2328 2753 2575 2939 
Q 2822 3125 2822 3475 
Q 2822 3834 2567 4026 
Q 2313 4219 1838 4219 
Q 1578 4219 1281 4162 
Q 984 4106 628 3988 
L 628 4550 
Q 988 4650 1302 4700 
Q 1616 4750 1894 4750 
Q 2613 4750 3031 4423 
Q 3450 4097 3450 3541 
Q 3450 3153 3228 2886 
Q 3006 2619 2597 2516 
z
" transform="scale(0.015625)"/>
        <path id="DejaVuSans-35" d="M 691 4666 
L 3169 4666 
L 3169 4134 
L 1269 4134 
L 1269 2991 
Q 1406 3038 1543 3061 
Q 1681 3084 1819 3084 
Q 2600 3084 3056 2656 
Q 3513 2228 3513 1497 
Q 3513 744 3044 326 
Q 2575 -91 1722 -91 
Q 1428 -91 1123 -41 
Q 819 9 494 109 
L 494 744 
Q 775 591 1075 516 
Q 1375 441 1709 441 
Q 2250 441 2565 725 
Q 2881 1009 2881 1497 
Q 2881 1984 2565 2268 
Q 2250 2553 1709 2553 
Q 1456 2553 1204 2497 
Q 953 2441 691 2322 
L 691 4666 
z
" transform="scale(0.015625)"/>
       </defs>
       <use xlink:href="#DejaVuSans-2212"/>
       <use xlink:href="#DejaVuSans-33" x="83.789062"/>
       <use xlink:href="#DejaVuSans-35" x="147.412109"/>
       <use xlink:href="#DejaVuSans-30" x="211.035156"/>
      </g>
     </g>
    </g>
    <g id="ytick_2">
     <g id="line2d_15">
      <path d="M 57.6 255.535302 
L 414.72 255.535302 
" clip-path="url(#pcf9e2f66cc)" style="fill: none; stroke: #b0b0b0; stroke-width: 0.8; stroke-linecap: square"/>
     </g>
     <g id="line2d_16">
      <g>
       <use xlink:href="#m3ede4bc50f" x="57.6" y="255.535302" style="stroke: #000000; stroke-width: 0.8"/>
      </g>
     </g>
     <g id="text_9">
      <!-- −300 -->
      <g transform="translate(23.132812 259.334521) scale(0.1 -0.1)">
       <use xlink:href="#DejaVuSans-2212"/>
       <use xlink:href="#DejaVuSans-33" x="83.789062"/>
       <use xlink:href="#DejaVuSans-30" x="147.412109"/>
       <use xlink:href="#DejaVuSans-30" x="211.035156"/>
      </g>
     </g>
    </g>
    <g id="ytick_3">
     <g id="line2d_17">
      <path d="M 57.6 220.015491 
L 414.72 220.015491 
" clip-path="url(#pcf9e2f66cc)" style="fill: none; stroke: #b0b0b0; stroke-width: 0.8; stroke-linecap: square"/>
     </g>
     <g id="line2d_18">
      <g>
       <use xlink:href="#m3ede4bc50f" x="57.6" y="220.015491" style="stroke: #000000; stroke-width: 0.8"/>
      </g>
     </g>
     <g id="text_10">
      <!-- −250 -->
      <g transform="translate(23.132812 223.81471) scale(0.1 -0.1)">
       <use xlink:href="#DejaVuSans-2212"/>
       <use xlink:href="#DejaVuSans-32" x="83.789062"/>
       <use xlink:href="#DejaVuSans-35" x="147.412109"/>
       <use xlink:href="#DejaVuSans-30" x="211.035156"/>
      </g>
     </g>
    </g>
    <g id="ytick_4">
     <g id="line2d_19">
      <path d="M 57.6 184.49568 
L 414.72 184.49568 
" clip-path="url(#pcf9e2f66cc)" style="fill: none; stroke: #b0b0b0; stroke-width: 0.8; stroke-linecap: square"/>
     </g>
     <g id="line2d_20">
      <g>
       <use xlink:href="#m3ede4bc50f" x="57.6" y="184.49568" style="stroke: #000000; stroke-width: 0.8"/>
      </g>
     </g>
     <g id="text_11">
      <!-- −200 -->
      <g transform="translate(23.132812 188.294899) scale(0.1 -0.1)">
       <use xlink:href="#DejaVuSans-2212"/>
       <use xlink:href="#DejaVuSans-32" x="83.789062"/>
       <use xlink:href="#DejaVuSans-30" x="147.412109"/>
       <use xlink:href="#DejaVuSans-30" x="211.035156"/>
      </g>
     </g>
    </g>
    <g id="ytick_5">
     <g id="line2d_21">
      <path d="M 57.6 148.975869 
L 414.72 148.975869 
" clip-path="url(#pcf9e2f66cc)" style="fill: none; stroke: #b0b0b0; stroke-width: 0.8; stroke-linecap: square"/>
     </g>
     <g id="line2d_22">
      <g>
       <use xlink:href="#m3ede4bc50f" x="57.6" y="148.975869" style="stroke: #000000; stroke-width: 0.8"/>
      </g>
     </g>
     <g id="text_12">
      <!-- −150 -->
      <g transform="translate(23.132812 152.775088) scale(0.1 -0.1)">
       <use xlink:href="#DejaVuSans-2212"/>
       <use xlink:href="#DejaVuSans-31" x="83.789062"/>
       <use xlink:href="#DejaVuSans-35" x="147.412109"/>
       <use xlink:href="#DejaVuSans-30" x="211.035156"/>
      </g>
     </g>
    </g>
    <g id="ytick_6">
     <g id="line2d_23">
      <path d="M 57.6 113.456058 
L 414.72 113.456058 
" clip-path="url(#pcf9e2f66cc)" style="fill: none; stroke: #b0b0b0; stroke-width: 0.8; stroke-linecap: square"/>
     </g>
     <g id="line2d_24">
      <g>
       <use xlink:href="#m3ede4bc50f" x="57.6" y="113.456058" style="stroke: #000000; stroke-width: 0.8"/>
      </g>
     </g>
     <g id="text_13">
      <!-- −100 -->
      <g transform="translate(23.132812 117.255277) scale(0.1 -0.1)">
       <use xlink:href="#DejaVuSans-2212"/>
       <use xlink:href="#DejaVuSans-31" x="83.789062"/>
       <use xlink:href="#DejaVuSans-30" x="147.412109"/>
       <use xlink:href="#DejaVuSans-30" x="211.035156"/>
      </g>
     </g>
    </g>
    <g id="ytick_7">
     <g id="line2d_25">
      <path d="M 57.6 77.936247 
L 414.72 77.936247 
" clip-path="url(#pcf9e2f66cc)" style="fill: none; stroke: #b0b0b0; stroke-width: 0.8; stroke-linecap: square"/>
     </g>
     <g id="line2d_26">
      <g>
       <use xlink:href="#m3ede4bc50f" x="57.6" y="77.936247" style="stroke: #000000; stroke-width: 0.8"/>
      </g>
     </g>
     <g id="text_14">
      <!-- −50 -->
      <g transform="translate(29.495313 81.735466) scale(0.1 -0.1)">
       <use xlink:href="#DejaVuSans-2212"/>
       <use xlink:href="#DejaVuSans-35" x="83.789062"/>
       <use xlink:href="#DejaVuSans-30" x="147.412109"/>
      </g>
     </g>
    </g>
    <g id="ytick_8">
     <g id="line2d_27">
      <path d="M 57.6 42.416436 
L 414.72 42.416436 
" clip-path="url(#pcf9e2f66cc)" style="fill: none; stroke: #b0b0b0; stroke-width: 0.8; stroke-linecap: square"/>
     </g>
     <g id="line2d_28">
      <g>
       <use xlink:href="#m3ede4bc50f" x="57.6" y="42.416436" style="stroke: #000000; stroke-width: 0.8"/>
      </g>
     </g>
     <g id="text_15">
      <!-- 0 -->
      <g transform="translate(44.2375 46.215655) scale(0.1 -0.1)">
       <use xlink:href="#DejaVuSans-30"/>
      </g>
     </g>
    </g>
    <g id="text_16">
     <!-- Episode reward mean -->
     <g transform="translate(17.053125 228.838156) rotate(-90) scale(0.1 -0.1)">
      <defs>
       <path id="DejaVuSans-45" d="M 628 4666 
L 3578 4666 
L 3578 4134 
L 1259 4134 
L 1259 2753 
L 3481 2753 
L 3481 2222 
L 1259 2222 
L 1259 531 
L 3634 531 
L 3634 0 
L 628 0 
L 628 4666 
z
" transform="scale(0.015625)"/>
       <path id="DejaVuSans-69" d="M 603 3500 
L 1178 3500 
L 1178 0 
L 603 0 
L 603 3500 
z
M 603 4863 
L 1178 4863 
L 1178 4134 
L 603 4134 
L 603 4863 
z
" transform="scale(0.015625)"/>
       <path id="DejaVuSans-73" d="M 2834 3397 
L 2834 2853 
Q 2591 2978 2328 3040 
Q 2066 3103 1784 3103 
Q 1356 3103 1142 2972 
Q 928 2841 928 2578 
Q 928 2378 1081 2264 
Q 1234 2150 1697 2047 
L 1894 2003 
Q 2506 1872 2764 1633 
Q 3022 1394 3022 966 
Q 3022 478 2636 193 
Q 2250 -91 1575 -91 
Q 1294 -91 989 -36 
Q 684 19 347 128 
L 347 722 
Q 666 556 975 473 
Q 1284 391 1588 391 
Q 1994 391 2212 530 
Q 2431 669 2431 922 
Q 2431 1156 2273 1281 
Q 2116 1406 1581 1522 
L 1381 1569 
Q 847 1681 609 1914 
Q 372 2147 372 2553 
Q 372 3047 722 3315 
Q 1072 3584 1716 3584 
Q 2034 3584 2315 3537 
Q 2597 3491 2834 3397 
z
" transform="scale(0.015625)"/>
       <path id="DejaVuSans-6f" d="M 1959 3097 
Q 1497 3097 1228 2736 
Q 959 2375 959 1747 
Q 959 1119 1226 758 
Q 1494 397 1959 397 
Q 2419 397 2687 759 
Q 2956 1122 2956 1747 
Q 2956 2369 2687 2733 
Q 2419 3097 1959 3097 
z
M 1959 3584 
Q 2709 3584 3137 3096 
Q 3566 2609 3566 1747 
Q 3566 888 3137 398 
Q 2709 -91 1959 -91 
Q 1206 -91 779 398 
Q 353 888 353 1747 
Q 353 2609 779 3096 
Q 1206 3584 1959 3584 
z
" transform="scale(0.015625)"/>
       <path id="DejaVuSans-64" d="M 2906 2969 
L 2906 4863 
L 3481 4863 
L 3481 0 
L 2906 0 
L 2906 525 
Q 2725 213 2448 61 
Q 2172 -91 1784 -91 
Q 1150 -91 751 415 
Q 353 922 353 1747 
Q 353 2572 751 3078 
Q 1150 3584 1784 3584 
Q 2172 3584 2448 3432 
Q 2725 3281 2906 2969 
z
M 947 1747 
Q 947 1113 1208 752 
Q 1469 391 1925 391 
Q 2381 391 2643 752 
Q 2906 1113 2906 1747 
Q 2906 2381 2643 2742 
Q 2381 3103 1925 3103 
Q 1469 3103 1208 2742 
Q 947 2381 947 1747 
z
" transform="scale(0.015625)"/>
       <path id="DejaVuSans-20" transform="scale(0.015625)"/>
       <path id="DejaVuSans-72" d="M 2631 2963 
Q 2534 3019 2420 3045 
Q 2306 3072 2169 3072 
Q 1681 3072 1420 2755 
Q 1159 2438 1159 1844 
L 1159 0 
L 581 0 
L 581 3500 
L 1159 3500 
L 1159 2956 
Q 1341 3275 1631 3429 
Q 1922 3584 2338 3584 
Q 2397 3584 2469 3576 
Q 2541 3569 2628 3553 
L 2631 2963 
z
" transform="scale(0.015625)"/>
       <path id="DejaVuSans-77" d="M 269 3500 
L 844 3500 
L 1563 769 
L 2278 3500 
L 2956 3500 
L 3675 769 
L 4391 3500 
L 4966 3500 
L 4050 0 
L 3372 0 
L 2619 2869 
L 1863 0 
L 1184 0 
L 269 3500 
z
" transform="scale(0.015625)"/>
       <path id="DejaVuSans-61" d="M 2194 1759 
Q 1497 1759 1228 1600 
Q 959 1441 959 1056 
Q 959 750 1161 570 
Q 1363 391 1709 391 
Q 2188 391 2477 730 
Q 2766 1069 2766 1631 
L 2766 1759 
L 2194 1759 
z
M 3341 1997 
L 3341 0 
L 2766 0 
L 2766 531 
Q 2569 213 2275 61 
Q 1981 -91 1556 -91 
Q 1019 -91 701 211 
Q 384 513 384 1019 
Q 384 1609 779 1909 
Q 1175 2209 1959 2209 
L 2766 2209 
L 2766 2266 
Q 2766 2663 2505 2880 
Q 2244 3097 1772 3097 
Q 1472 3097 1187 3025 
Q 903 2953 641 2809 
L 641 3341 
Q 956 3463 1253 3523 
Q 1550 3584 1831 3584 
Q 2591 3584 2966 3190 
Q 3341 2797 3341 1997 
z
" transform="scale(0.015625)"/>
       <path id="DejaVuSans-6d" d="M 3328 2828 
Q 3544 3216 3844 3400 
Q 4144 3584 4550 3584 
Q 5097 3584 5394 3201 
Q 5691 2819 5691 2113 
L 5691 0 
L 5113 0 
L 5113 2094 
Q 5113 2597 4934 2840 
Q 4756 3084 4391 3084 
Q 3944 3084 3684 2787 
Q 3425 2491 3425 1978 
L 3425 0 
L 2847 0 
L 2847 2094 
Q 2847 2600 2669 2842 
Q 2491 3084 2119 3084 
Q 1678 3084 1418 2786 
Q 1159 2488 1159 1978 
L 1159 0 
L 581 0 
L 581 3500 
L 1159 3500 
L 1159 2956 
Q 1356 3278 1631 3431 
Q 1906 3584 2284 3584 
Q 2666 3584 2933 3390 
Q 3200 3197 3328 2828 
z
" transform="scale(0.015625)"/>
       <path id="DejaVuSans-6e" d="M 3513 2113 
L 3513 0 
L 2938 0 
L 2938 2094 
Q 2938 2591 2744 2837 
Q 2550 3084 2163 3084 
Q 1697 3084 1428 2787 
Q 1159 2491 1159 1978 
L 1159 0 
L 581 0 
L 581 3500 
L 1159 3500 
L 1159 2956 
Q 1366 3272 1645 3428 
Q 1925 3584 2291 3584 
Q 2894 3584 3203 3211 
Q 3513 2838 3513 2113 
z
" transform="scale(0.015625)"/>
      </defs>
      <use xlink:href="#DejaVuSans-45"/>
      <use xlink:href="#DejaVuSans-70" x="63.183594"/>
      <use xlink:href="#DejaVuSans-69" x="126.660156"/>
      <use xlink:href="#DejaVuSans-73" x="154.443359"/>
      <use xlink:href="#DejaVuSans-6f" x="206.542969"/>
      <use xlink:href="#DejaVuSans-64" x="267.724609"/>
      <use xlink:href="#DejaVuSans-65" x="331.201172"/>
      <use xlink:href="#DejaVuSans-20" x="392.724609"/>
      <use xlink:href="#DejaVuSans-72" x="424.511719"/>
      <use xlink:href="#DejaVuSans-65" x="463.375"/>
      <use xlink:href="#DejaVuSans-77" x="524.898438"/>
      <use xlink:href="#DejaVuSans-61" x="606.685547"/>
      <use xlink:href="#DejaVuSans-72" x="667.964844"/>
      <use xlink:href="#DejaVuSans-64" x="707.328125"/>
      <use xlink:href="#DejaVuSans-20" x="770.804688"/>
      <use xlink:href="#DejaVuSans-6d" x="802.591797"/>
      <use xlink:href="#DejaVuSans-65" x="900.003906"/>
      <use xlink:href="#DejaVuSans-61" x="961.527344"/>
      <use xlink:href="#DejaVuSans-6e" x="1022.806641"/>
     </g>
    </g>
   </g>
   <g id="line2d_29">
    <path d="M 73.832727 293.803822 
L 74.144467 257.042964 
L 74.456207 262.989259 
L 74.767947 232.97671 
L 75.079688 256.582707 
L 75.391428 250.094315 
L 75.703168 268.54775 
L 76.014908 268.487632 
L 76.638388 295.488 
L 76.950128 262.869263 
L 77.261868 263.537015 
L 77.573608 283.503901 
L 77.885348 267.732814 
L 78.197088 271.39586 
L 78.820568 281.610169 
L 79.132308 275.728739 
L 79.755788 257.886842 
L 80.067529 255.087207 
L 80.379269 262.500276 
L 80.691009 242.263805 
L 81.002749 260.738204 
L 81.314489 268.432371 
L 81.626229 248.220831 
L 81.937969 246.865749 
L 82.249709 259.119434 
L 82.561449 289.302645 
L 82.873189 267.989132 
L 83.184929 265.583242 
L 83.496669 285.874649 
L 83.808409 258.704313 
L 84.120149 266.442425 
L 84.431889 269.124253 
L 84.74363 258.401276 
L 85.05537 253.313579 
L 85.36711 271.057876 
L 85.67885 261.30751 
L 85.99059 255.037972 
L 86.30233 254.28916 
L 86.61407 266.13529 
L 86.92581 259.765312 
L 87.23755 261.176327 
L 87.54929 245.856153 
L 87.857783 257.627641 
L 88.169523 224.320599 
L 88.481263 249.387647 
L 88.793003 241.767169 
L 89.104743 217.954988 
L 89.728223 264.225298 
L 90.039963 201.446536 
L 90.351703 191.989278 
L 90.663443 190.060924 
L 90.975183 206.971629 
L 91.286924 210.144782 
L 91.598664 217.663767 
L 91.910404 212.11165 
L 92.222144 196.576871 
L 92.533884 205.601079 
L 93.157364 238.190062 
L 93.469104 248.677836 
L 93.780844 240.380804 
L 94.092584 238.897596 
L 94.716064 216.166695 
L 95.651284 203.271599 
L 95.963025 241.899241 
L 96.274765 213.868302 
L 96.586505 218.512078 
L 96.898245 227.192318 
L 97.209985 244.586077 
L 97.521725 272.592095 
L 97.833465 286.235592 
L 98.145205 281.66259 
L 98.456945 263.482664 
L 98.768685 257.108437 
L 99.080425 263.819738 
L 99.392165 254.944382 
L 99.703905 263.960894 
L 100.015645 258.816852 
L 100.327385 257.155243 
L 100.639125 237.44526 
L 100.950866 228.535172 
L 101.262606 246.562994 
L 101.574346 220.596774 
L 101.886086 225.204692 
L 102.197826 217.770062 
L 102.509566 204.115389 
L 102.821306 203.026684 
L 103.133046 199.120437 
L 103.444786 203.719227 
L 103.756526 199.415973 
L 104.068266 210.708602 
L 104.380006 231.485524 
L 104.691746 240.088498 
L 105.003486 264.206394 
L 105.315226 278.917631 
L 105.626966 260.313349 
L 105.938707 228.60691 
L 106.562187 213.07238 
L 106.873927 258.688747 
L 107.185667 248.687289 
L 107.497407 263.692306 
L 107.809147 261.601073 
L 108.120887 242.439453 
L 108.432627 244.006105 
L 108.744367 259.721692 
L 109.056107 241.012395 
L 109.367847 267.951756 
L 109.679587 234.987533 
L 110.303067 259.479835 
L 110.614808 242.129717 
L 110.926548 273.005135 
L 111.238288 278.938725 
L 111.550028 260.228777 
L 111.861768 271.377584 
L 112.173508 236.789648 
L 112.485248 258.641616 
L 112.796988 243.240903 
L 113.108728 241.631867 
L 113.420468 244.239529 
L 113.732208 258.294309 
L 114.355688 235.283958 
L 114.667428 217.371342 
L 114.979168 235.726807 
L 115.290908 226.677819 
L 115.602649 271.785832 
L 115.914389 214.902537 
L 116.226129 240.033909 
L 116.537869 235.029093 
L 116.849609 270.881447 
L 117.161349 232.541341 
L 117.473089 223.02867 
L 118.096569 258.602007 
L 118.408309 255.921415 
L 118.720049 234.126291 
L 119.031789 202.650045 
L 119.343529 208.858749 
L 119.655269 206.296343 
L 119.967009 198.066409 
L 120.278749 186.073021 
L 120.59049 226.070942 
L 120.90223 231.045255 
L 121.21397 224.403024 
L 121.83745 223.285106 
L 122.14919 211.060343 
L 122.46093 208.41344 
L 122.77267 210.308441 
L 123.08441 216.210173 
L 123.39615 227.244327 
L 123.70789 203.705114 
L 124.01963 217.486135 
L 124.33137 206.949473 
L 124.64311 210.731474 
L 124.95485 217.520411 
L 125.266591 206.56672 
L 125.578331 221.74254 
L 125.890071 226.395659 
L 126.201811 205.637761 
L 126.513551 227.617324 
L 126.825291 219.560252 
L 127.137031 217.859924 
L 127.448771 221.710606 
L 127.760511 177.135303 
L 128.072251 214.312929 
L 128.383991 205.262575 
L 128.695731 191.831039 
L 129.007471 192.254788 
L 129.319211 208.516223 
L 129.630951 194.412729 
L 129.942691 202.732254 
L 130.254432 203.040223 
L 130.566172 191.884241 
L 130.877912 193.428054 
L 131.189652 193.525092 
L 131.501392 201.959713 
L 132.124872 263.312155 
L 132.436612 258.632944 
L 132.748352 261.357893 
L 133.060092 230.874485 
L 133.371832 222.637104 
L 133.683572 261.515937 
L 134.307052 234.31874 
L 134.618792 230.832643 
L 134.930532 215.621074 
L 135.242273 226.089045 
L 135.554013 242.255827 
L 135.865753 233.240052 
L 136.177493 186.488813 
L 136.489233 167.421001 
L 136.800973 172.42083 
L 137.112713 171.591142 
L 137.424453 147.751819 
L 137.736193 158.874155 
L 138.047933 152.696907 
L 138.359673 180.031314 
L 138.671413 175.272984 
L 138.983153 176.561043 
L 139.294893 154.173124 
L 139.606633 164.914408 
L 139.918374 167.962751 
L 140.541854 159.396415 
L 140.853594 170.933005 
L 141.165334 196.960274 
L 141.477074 165.061429 
L 141.788814 150.931822 
L 142.100554 145.763574 
L 142.412294 145.843453 
L 142.724034 186.250966 
L 143.035774 168.130194 
L 143.347514 199.236174 
L 143.659254 196.76518 
L 143.970994 218.892944 
L 144.282734 199.30363 
L 144.594474 194.346281 
L 144.906215 158.814818 
L 145.217955 177.153936 
L 145.529695 179.679129 
L 145.841435 168.532133 
L 146.153175 248.366279 
L 146.464915 200.543506 
L 146.776655 227.039152 
L 147.088395 228.751123 
L 147.400135 225.881701 
L 147.711875 224.361443 
L 147.99439 209.419578 
L 148.30613 237.705068 
L 148.900384 215.948999 
L 149.523864 254.172632 
L 149.835604 232.978574 
L 150.147344 236.130567 
L 150.459084 234.481337 
L 150.770824 211.981421 
L 151.082565 231.694905 
L 151.394305 193.386863 
L 151.706045 199.436775 
L 152.017785 171.855395 
L 152.329525 209.34641 
L 152.641265 167.068241 
L 152.953005 207.917455 
L 153.264745 208.404898 
L 153.576485 224.447251 
L 153.888225 190.296602 
L 154.199965 227.665561 
L 154.511705 201.934348 
L 154.823445 221.167066 
L 155.135185 196.505968 
L 155.446925 184.707305 
L 155.758666 180.392929 
L 156.070406 199.520426 
L 156.382146 165.127519 
L 156.693886 202.166992 
L 157.005626 207.36416 
L 157.317366 163.112012 
L 157.629106 155.902145 
L 157.940846 173.18342 
L 158.252586 178.382572 
L 158.564326 169.335426 
L 158.876066 165.189501 
L 159.187806 166.516247 
L 159.499546 176.753764 
L 159.811286 152.210927 
L 160.123026 171.386574 
L 160.434766 156.643803 
L 160.746507 166.474817 
L 161.058247 170.829474 
L 161.369987 163.781477 
L 161.681727 165.556753 
L 161.993467 146.930575 
L 162.305207 172.641019 
L 163.240427 153.678005 
L 163.552167 142.462003 
L 163.863907 147.5759 
L 164.175647 159.071233 
L 164.487387 158.77806 
L 164.799127 170.035579 
L 165.110867 162.93295 
L 165.422607 146.856257 
L 165.734348 164.037784 
L 166.046088 139.985513 
L 166.357828 151.923055 
L 166.669568 152.45143 
L 166.981308 126.339881 
L 167.293048 127.702702 
L 167.604788 131.635685 
L 167.916528 125.189758 
L 168.228268 121.317407 
L 168.540008 146.773929 
L 168.851748 144.547946 
L 169.163488 152.01593 
L 169.475228 136.024536 
L 169.786968 127.949334 
L 170.098708 112.764788 
L 170.410449 113.967902 
L 170.722189 120.127372 
L 171.033929 123.58864 
L 171.345669 112.405666 
L 171.657409 119.368614 
L 171.969149 108.426159 
L 172.280889 111.43472 
L 172.592629 121.478887 
L 172.904369 113.00173 
L 173.216109 118.689133 
L 173.527849 114.512092 
L 173.839589 123.870702 
L 174.151329 102.622516 
L 174.463069 108.975514 
L 174.774809 100.786164 
L 175.086549 98.418565 
L 175.71003 117.075387 
L 176.02177 118.868455 
L 176.33351 121.805907 
L 176.64525 134.280729 
L 176.95699 119.536284 
L 177.26873 118.879848 
L 177.58047 114.034144 
L 177.89221 111.351416 
L 178.20395 112.372659 
L 178.51569 95.603185 
L 178.82743 106.289599 
L 179.13917 95.69044 
L 179.45091 99.984356 
L 179.76265 92.028261 
L 180.07439 89.141561 
L 180.386131 103.613473 
L 180.697871 101.84139 
L 181.009611 117.608455 
L 181.321351 103.957457 
L 181.633091 101.542071 
L 181.944831 95.648961 
L 182.256571 112.313208 
L 182.568311 90.936354 
L 183.191791 106.257632 
L 183.503531 102.81348 
L 184.127011 109.987484 
L 184.438751 102.254256 
L 184.750491 103.423213 
L 185.062232 114.342238 
L 185.373972 103.006943 
L 185.685712 103.47952 
L 185.997452 89.451666 
L 186.309192 112.716232 
L 186.620932 101.064307 
L 186.932672 103.018254 
L 187.244412 135.895748 
L 187.556152 131.424315 
L 187.867892 96.391649 
L 188.179632 101.715404 
L 188.803112 146.569718 
L 189.426592 170.266065 
L 189.738332 146.948157 
L 190.050073 160.747616 
L 190.361813 159.52181 
L 190.673553 126.363213 
L 190.985293 157.006112 
L 191.297033 168.745492 
L 191.608773 139.030495 
L 191.920513 129.576104 
L 192.232253 125.727709 
L 192.543993 127.86067 
L 192.855733 128.693692 
L 193.167473 125.319683 
L 193.479213 127.878935 
L 193.790953 114.627524 
L 194.102693 129.883147 
L 194.414433 121.696116 
L 194.726173 158.511022 
L 195.037914 167.508944 
L 195.349654 169.035489 
L 195.973134 190.732264 
L 197.220094 124.08326 
L 197.531834 118.223884 
L 197.843574 148.356668 
L 198.155314 127.058298 
L 198.467054 139.85665 
L 198.778794 134.690429 
L 199.402274 129.12602 
L 199.714015 139.100293 
L 200.025755 139.292471 
L 200.649235 133.542279 
L 200.960975 126.991233 
L 201.272715 158.398223 
L 201.584455 135.576051 
L 201.896195 123.674833 
L 202.207935 130.99449 
L 202.519675 121.126605 
L 202.831415 118.0046 
L 203.143155 103.027382 
L 203.454895 126.46004 
L 203.766635 98.894377 
L 204.078375 104.899955 
L 204.390115 118.424832 
L 204.701856 108.807882 
L 205.013596 126.557853 
L 205.637076 102.214739 
L 205.948816 102.874996 
L 206.260556 86.227477 
L 206.572296 108.336178 
L 206.884036 122.473372 
L 207.195776 118.340319 
L 207.507516 98.837311 
L 207.819256 92.306887 
L 208.130996 117.509699 
L 208.442736 103.372824 
L 208.754476 103.884792 
L 209.066216 95.097536 
L 209.377956 95.032579 
L 210.001437 108.621633 
L 210.313177 92.687066 
L 210.624917 92.747519 
L 210.936657 87.46631 
L 211.248397 93.217641 
L 211.560137 93.910292 
L 211.871877 97.692803 
L 212.183617 97.864072 
L 212.495357 90.216012 
L 212.807097 105.666116 
L 213.118837 84.49722 
L 213.430577 78.700655 
L 213.742317 105.823152 
L 214.054057 95.78396 
L 214.365798 95.281905 
L 214.677538 97.166022 
L 214.989278 89.912113 
L 215.301018 103.576915 
L 215.612758 109.441223 
L 215.924498 77.044314 
L 216.236238 86.234648 
L 216.547978 66.425486 
L 216.859718 93.080816 
L 217.171458 96.111072 
L 217.483198 91.019701 
L 217.794938 111.569268 
L 218.106678 99.819043 
L 218.418418 105.440985 
L 218.730158 108.325538 
L 219.041898 71.539285 
L 219.353639 89.263476 
L 219.665379 80.909115 
L 219.977119 81.266443 
L 220.288859 88.785263 
L 220.600599 82.014193 
L 220.912339 90.202554 
L 221.224079 86.170479 
L 221.535819 95.63797 
L 221.847559 95.142955 
L 222.159299 92.049323 
L 222.471039 87.533674 
L 222.782779 98.957275 
L 223.094519 86.948502 
L 223.406259 85.833638 
L 223.717999 87.858979 
L 224.029739 107.047837 
L 224.65322 92.949324 
L 224.96496 93.133806 
L 225.2767 81.747789 
L 225.58844 88.366793 
L 225.90018 76.760919 
L 226.52366 97.683584 
L 226.8354 83.548492 
L 227.14714 90.998487 
L 227.45888 91.690911 
L 227.77062 98.624884 
L 228.08236 82.948808 
L 228.3941 94.150708 
L 228.70584 97.159616 
L 229.329321 88.44026 
L 229.641061 95.307665 
L 229.952801 106.544475 
L 230.264541 90.591871 
L 230.888021 97.038161 
L 231.199761 98.747064 
L 231.511501 93.496375 
L 231.823241 106.582468 
L 232.134981 105.696408 
L 232.446721 98.059898 
L 232.758461 87.271094 
L 233.070201 85.704555 
L 233.381941 92.18023 
L 233.693681 82.038615 
L 234.317162 92.353244 
L 234.628902 82.949515 
L 234.940642 80.750768 
L 235.252382 86.024196 
L 235.564122 84.36889 
L 235.875862 89.60112 
L 236.187602 92.100286 
L 236.499342 114.464023 
L 236.811082 84.436799 
L 237.122822 85.224819 
L 237.434562 72.472052 
L 237.746302 86.518054 
L 238.058042 86.886152 
L 238.369782 74.348906 
L 238.681522 93.218925 
L 238.993263 85.439639 
L 239.305003 93.904368 
L 239.616743 77.913088 
L 239.928483 94.008718 
L 240.240223 99.213679 
L 240.551963 88.331033 
L 240.863703 87.498052 
L 241.175443 76.115613 
L 241.798923 91.551013 
L 242.110663 102.788549 
L 242.422403 88.762993 
L 242.734143 97.106376 
L 243.045883 86.884962 
L 243.357623 88.579855 
L 243.669364 97.763679 
L 243.981104 99.074101 
L 244.292844 81.749516 
L 244.604584 90.942072 
L 244.916324 86.568047 
L 245.228064 88.473901 
L 245.539804 88.373053 
L 245.851544 94.317034 
L 246.163284 94.463598 
L 246.475024 76.705706 
L 246.786764 90.386825 
L 247.098504 81.345387 
L 247.410244 79.00295 
L 247.721984 92.42296 
L 248.033724 82.102906 
L 248.345464 93.760226 
L 248.657205 80.081438 
L 248.968945 75.133173 
L 249.280685 76.874048 
L 249.592425 83.412171 
L 249.904165 100.167022 
L 250.215905 80.815281 
L 250.527645 81.491946 
L 250.839385 99.014368 
L 251.151125 76.231054 
L 251.462865 96.525098 
L 251.774605 82.354847 
L 252.398085 70.692167 
L 252.709825 71.631269 
L 253.021565 81.244029 
L 253.333305 79.012006 
L 253.645046 95.34877 
L 253.956786 76.708622 
L 254.268526 80.100239 
L 254.580266 79.93241 
L 254.892006 85.077506 
L 255.203746 110.642922 
L 255.515486 87.118874 
L 255.827226 97.20621 
L 256.138966 100.108704 
L 256.450706 100.24057 
L 256.762446 83.40148 
L 257.385926 102.03585 
L 257.697666 100.049215 
L 258.009406 88.987571 
L 258.321147 98.703266 
L 258.632887 79.156449 
L 258.944627 101.262746 
L 259.256367 92.342333 
L 259.568107 91.179522 
L 259.879847 78.166059 
L 260.191587 90.097647 
L 260.503327 76.304808 
L 260.815067 80.816335 
L 261.126807 70.027409 
L 261.438547 88.676854 
L 261.750287 69.025013 
L 262.062027 94.701282 
L 262.373767 83.071989 
L 262.685507 82.450348 
L 263.308988 96.251556 
L 263.620728 82.283936 
L 263.932468 106.171884 
L 264.867688 78.487336 
L 265.491168 68.042335 
L 265.802908 97.429494 
L 266.114648 69.816759 
L 266.426388 67.08961 
L 266.738128 74.666195 
L 267.049868 65.470759 
L 267.361608 68.314091 
L 267.673348 80.943637 
L 267.985088 99.988751 
L 268.296829 80.549914 
L 268.608569 74.622015 
L 268.920309 73.47184 
L 269.232049 87.387757 
L 269.543789 76.350308 
L 269.855529 80.704975 
L 270.167269 88.09079 
L 270.479009 73.498756 
L 270.790749 64.90663 
L 271.102489 70.571038 
L 271.414229 102.791334 
L 271.725969 81.059642 
L 272.037709 76.102166 
L 272.349449 86.528989 
L 272.661189 73.74164 
L 272.97293 81.299079 
L 273.59641 86.724842 
L 273.90815 75.874162 
L 274.21989 91.840636 
L 274.53163 77.873739 
L 274.84337 80.198445 
L 275.15511 91.704813 
L 275.46685 83.659803 
L 275.77859 82.047957 
L 276.09033 84.000684 
L 276.40207 89.640045 
L 276.71381 81.376529 
L 277.02555 81.446793 
L 277.33729 100.154464 
L 277.64903 67.386897 
L 277.960771 69.948726 
L 278.272511 83.482971 
L 278.584251 83.58642 
L 278.895991 87.879168 
L 279.207731 73.936856 
L 279.519471 93.802843 
L 279.831211 81.180397 
L 280.454691 101.616676 
L 280.766431 85.055249 
L 281.078171 77.040398 
L 281.389911 91.549371 
L 281.701651 78.001578 
L 282.013391 96.069518 
L 282.325131 96.2265 
L 282.636871 101.875264 
L 282.948612 86.412716 
L 283.260352 82.048 
L 283.572092 89.699512 
L 283.883832 78.776777 
L 284.195572 81.734036 
L 284.507312 86.944502 
L 284.819052 89.241006 
L 285.130792 89.436647 
L 285.442532 81.008063 
L 285.754272 67.545911 
L 286.066012 114.954333 
L 286.377752 81.33965 
L 286.689492 68.316235 
L 286.972007 72.091274 
L 287.283747 90.717937 
L 287.595487 72.615047 
L 287.907227 88.682193 
L 288.218967 83.602385 
L 288.530707 68.923228 
L 288.842447 85.688632 
L 289.154187 84.825579 
L 289.465927 95.743002 
L 289.777667 100.891402 
L 290.089407 86.396575 
L 290.712888 71.862102 
L 291.024628 90.583649 
L 291.336368 82.085628 
L 291.648108 87.865163 
L 291.959848 97.791711 
L 292.271588 87.250951 
L 292.583328 87.257582 
L 292.895068 92.869218 
L 293.206808 78.188657 
L 293.518548 88.364685 
L 293.830288 75.469369 
L 294.142028 79.576819 
L 294.453768 89.361951 
L 294.765508 79.8529 
L 295.388988 85.196505 
L 295.700729 74.736955 
L 296.012469 92.140144 
L 296.324209 79.390719 
L 296.635949 80.695905 
L 296.947689 100.386533 
L 297.571169 71.713191 
L 297.882909 71.585902 
L 298.194649 83.906389 
L 298.506389 89.058941 
L 299.129869 76.083167 
L 299.441609 96.673457 
L 299.753349 75.383895 
L 300.065089 72.443825 
L 300.68857 103.940113 
L 301.00031 86.318336 
L 302.24727 60.187197 
L 302.87075 78.002451 
L 303.18249 84.338937 
L 303.49423 88.099533 
L 303.80597 62.496572 
L 304.42945 94.243919 
L 304.74119 78.917253 
L 305.05293 77.45027 
L 305.364671 85.887628 
L 305.676411 81.276465 
L 305.988151 81.224772 
L 306.299891 70.90083 
L 306.611631 74.300762 
L 306.923371 81.350186 
L 307.235111 71.040826 
L 307.546851 80.745816 
L 307.858591 70.099599 
L 308.170331 89.37718 
L 308.482071 71.574658 
L 308.793811 67.522619 
L 309.105551 72.952059 
L 309.417291 60.450222 
L 309.729031 64.504654 
L 310.352512 81.308271 
L 310.664252 76.664607 
L 310.975992 78.906191 
L 311.599472 73.895728 
L 311.911212 92.143635 
L 312.222952 77.217041 
L 312.534692 85.568307 
L 312.846432 76.268717 
L 313.158172 78.652199 
L 313.469912 76.629096 
L 313.781652 84.915235 
L 314.093392 86.463229 
L 314.405132 80.670176 
L 314.716872 72.588466 
L 315.028613 73.252416 
L 315.340353 67.304409 
L 315.652093 81.60878 
L 315.963833 76.726427 
L 316.275573 61.17097 
L 316.587313 79.536717 
L 316.899053 66.660406 
L 317.210793 92.044787 
L 317.522533 74.844355 
L 317.834273 74.276602 
L 318.146013 80.908709 
L 318.457753 74.800606 
L 318.769493 78.590666 
L 319.081233 93.015446 
L 319.392973 72.354296 
L 319.704713 70.531028 
L 320.016454 96.981941 
L 320.328194 64.906049 
L 320.639934 82.580353 
L 320.951674 67.543515 
L 321.263414 82.51775 
L 321.575154 88.217979 
L 321.886894 83.954892 
L 322.198634 81.774398 
L 322.510374 57.65879 
L 322.822114 80.262422 
L 323.133854 85.669681 
L 323.445594 77.400802 
L 323.757334 75.381621 
L 324.069074 85.7394 
L 324.380814 70.51653 
L 324.692554 92.44504 
L 325.004295 92.713585 
L 325.316035 72.873397 
L 325.627775 66.21062 
L 325.939515 77.220602 
L 326.251255 65.310845 
L 326.562995 71.787896 
L 326.874735 73.457673 
L 327.186475 84.126003 
L 327.498215 75.691425 
L 327.809955 78.731104 
L 328.121695 69.736393 
L 328.433435 82.689512 
L 328.745175 73.072508 
L 329.056915 93.884266 
L 329.368655 86.819782 
L 329.992136 78.975116 
L 330.303876 82.610108 
L 330.615616 78.226894 
L 330.927356 78.014825 
L 331.239096 75.10503 
L 331.550836 68.789955 
L 331.862576 78.502002 
L 332.174316 70.246462 
L 332.486056 85.324149 
L 333.109536 67.993713 
L 333.421276 76.711332 
L 333.733016 67.16835 
L 334.044756 75.793866 
L 334.356496 81.305529 
L 334.668237 72.907472 
L 334.979977 71.974026 
L 335.291717 71.492699 
L 335.603457 88.787442 
L 335.915197 92.973686 
L 336.538677 76.429032 
L 336.850417 83.497385 
L 337.162157 69.267776 
L 337.473897 70.731743 
L 337.785637 77.718343 
L 338.097377 91.406296 
L 338.409117 89.813688 
L 339.032597 72.265329 
L 339.344337 92.980753 
L 339.656078 74.808242 
L 339.967818 81.900568 
L 340.279558 76.816226 
L 340.591298 80.781623 
L 340.903038 92.945638 
L 341.214778 72.420154 
L 341.526518 88.923839 
L 341.838258 80.970891 
L 342.149998 86.349707 
L 342.461738 76.404404 
L 342.773478 81.967517 
L 343.085218 79.992373 
L 343.396958 69.537055 
L 343.708698 89.084512 
L 344.020438 87.240138 
L 344.332179 70.463691 
L 344.643919 73.680856 
L 344.955659 94.859917 
L 345.267399 73.246554 
L 345.579139 86.554481 
L 345.890879 70.714649 
L 346.202619 95.187853 
L 346.826099 61.489308 
L 347.137839 73.707844 
L 347.449579 67.493663 
L 348.073059 87.898796 
L 348.384799 86.214258 
L 348.696539 72.852642 
L 349.008279 68.326224 
L 349.32002 74.886102 
L 349.63176 78.051168 
L 349.9435 76.338929 
L 350.25524 62.573754 
L 350.56698 78.513113 
L 350.87872 69.732393 
L 351.19046 73.732323 
L 351.5022 84.204527 
L 351.81394 62.642658 
L 352.12568 79.444877 
L 352.43742 69.71528 
L 352.74916 90.580337 
L 353.37264 65.860335 
L 353.68438 70.373886 
L 353.99612 84.616964 
L 354.307861 77.088164 
L 354.619601 66.232427 
L 354.931341 89.159073 
L 355.554821 72.510395 
L 355.866561 102.73835 
L 356.178301 84.123239 
L 356.490041 79.304391 
L 356.801781 91.248355 
L 357.113521 70.430148 
L 357.425261 88.573351 
L 357.737001 78.416905 
L 358.048741 98.971101 
L 358.360481 69.132295 
L 358.672221 77.056292 
L 358.983962 64.983044 
L 359.295702 84.679144 
L 359.889956 63.795224 
L 360.201696 79.940786 
L 361.136916 69.698294 
L 361.448656 81.222399 
L 362.072137 67.130479 
L 362.383877 72.867089 
L 362.695617 72.763216 
L 363.007357 82.986173 
L 363.630837 72.609264 
L 364.254317 87.528065 
L 364.566057 73.784815 
L 364.877797 65.582457 
L 365.189537 71.268161 
L 365.501277 79.354614 
L 366.124757 84.314705 
L 366.436497 74.608999 
L 366.748237 74.496189 
L 367.059978 69.342093 
L 367.371718 53.568 
L 367.683458 69.64893 
L 367.995198 62.99513 
L 368.618678 82.950445 
L 368.930418 73.569236 
L 369.242158 69.554531 
L 369.553898 74.793687 
L 369.865638 72.729131 
L 370.177378 62.134122 
L 370.489118 70.089049 
L 370.800858 74.123585 
L 371.112598 85.995192 
L 371.424338 104.19552 
L 371.736078 70.992182 
L 372.047819 77.678802 
L 372.359559 79.423677 
L 372.671299 76.313116 
L 372.983039 64.34659 
L 373.294779 72.713895 
L 373.606519 76.958303 
L 373.918259 87.713246 
L 374.229999 67.482756 
L 374.541739 69.839005 
L 374.853479 85.03435 
L 375.165219 74.291456 
L 375.476959 83.750185 
L 375.788699 78.571564 
L 376.100439 88.975279 
L 376.72392 73.380006 
L 377.03566 77.866756 
L 377.3474 70.909624 
L 377.65914 85.391543 
L 377.97088 70.21171 
L 378.28262 65.627179 
L 378.59436 77.652881 
L 378.9061 71.945485 
L 379.52958 81.121266 
L 379.84132 81.926706 
L 380.15306 86.999777 
L 380.4648 82.69294 
L 380.77654 75.742572 
L 381.08828 64.120139 
L 381.40002 89.247537 
L 381.711761 86.208109 
L 382.023501 77.555058 
L 382.306015 88.176257 
L 382.617755 69.534369 
L 382.929495 64.654977 
L 383.241235 75.354199 
L 383.864715 71.21342 
L 384.176455 57.423599 
L 384.488195 71.033487 
L 384.799936 70.381583 
L 385.111676 74.178085 
L 385.39419 85.996332 
L 385.70593 62.390376 
L 386.01767 74.306536 
L 386.32941 77.331344 
L 386.64115 71.622695 
L 386.95289 86.827983 
L 387.26463 78.396111 
L 387.57637 91.060491 
L 387.888111 81.532316 
L 388.199851 81.348156 
L 388.511591 80.048485 
L 389.135071 58.704582 
L 389.446811 69.256183 
L 389.758551 59.874361 
L 390.070291 57.902242 
L 390.382031 93.395766 
L 390.693771 73.10677 
L 391.005511 68.695416 
L 391.317251 69.814253 
L 391.628991 89.750351 
L 391.940731 70.875316 
L 392.252471 75.43301 
L 392.564212 98.04515 
L 392.875952 70.115241 
L 393.187692 74.547882 
L 393.499432 71.119688 
L 393.811172 83.075926 
L 394.122912 69.275635 
L 394.434652 82.506461 
L 394.746392 78.670591 
L 395.058132 86.011037 
L 395.681612 74.923022 
L 395.993352 65.588042 
L 396.305092 93.216649 
L 396.616832 69.819534 
L 397.240312 73.896158 
L 397.863793 71.443177 
L 398.175533 73.795587 
L 398.487273 71.635911 
L 398.487273 71.635911 
" clip-path="url(#pcf9e2f66cc)" style="fill: none; stroke: #b0c4de; stroke-width: 1.5; stroke-linecap: square"/>
   </g>
   <g id="line2d_30">
    <path d="M 73.832727 293.803822 
L 74.144467 270.828286 
L 74.456207 266.828783 
L 74.767947 251.271764 
L 75.079688 253.575261 
L 75.391428 252.11474 
L 75.703168 258.877251 
L 76.014908 262.787074 
L 76.326648 269.787778 
L 76.638388 280.130405 
L 76.950128 273.200807 
L 77.261868 269.326858 
L 77.573608 275.005091 
L 77.885348 272.093899 
L 78.197088 271.814552 
L 78.508828 274.026842 
L 78.820568 277.060686 
L 79.132308 276.527853 
L 79.444048 272.821373 
L 80.067529 262.143185 
L 80.379269 262.286023 
L 80.691009 254.277073 
L 81.002749 256.861537 
L 81.314489 261.489884 
L 81.937969 252.455648 
L 82.249709 255.121164 
L 82.561449 268.793761 
L 82.873189 268.47191 
L 83.184929 267.316442 
L 83.496669 274.739726 
L 83.808409 268.32556 
L 84.120149 267.572306 
L 84.431889 268.193085 
L 85.05537 259.891248 
L 85.36711 264.357899 
L 85.67885 263.137743 
L 86.30233 257.654365 
L 86.61407 261.046735 
L 86.92581 260.534166 
L 87.23755 260.79103 
L 87.54929 254.817079 
L 87.857783 255.941304 
L 88.169523 243.293022 
L 88.481263 245.730872 
L 88.793003 244.145391 
L 89.104743 233.66923 
L 89.416483 236.476384 
L 89.728223 247.57595 
L 90.351703 214.270222 
L 90.663443 204.586503 
L 90.975183 205.540553 
L 91.286924 207.382245 
L 91.598664 211.494853 
L 91.910404 211.741572 
L 92.222144 205.675692 
L 92.533884 205.645847 
L 92.845624 212.954612 
L 93.469104 233.30041 
L 93.780844 236.132567 
L 94.092584 237.238579 
L 94.404324 232.820095 
L 95.339544 215.156034 
L 95.651284 210.40226 
L 95.963025 223.001052 
L 96.274765 219.347952 
L 96.586505 219.013602 
L 96.898245 222.285089 
L 97.209985 231.205484 
L 97.833465 263.150314 
L 98.145205 270.555224 
L 98.456945 267.7262 
L 98.768685 263.479095 
L 99.080425 263.615352 
L 99.392165 260.146964 
L 99.703905 261.672536 
L 100.327385 259.180255 
L 100.950866 241.705823 
L 101.262606 243.648691 
L 101.574346 234.427925 
L 101.886086 230.738631 
L 102.197826 225.551204 
L 102.821306 211.3968 
L 103.133046 206.486255 
L 103.444786 205.379444 
L 103.756526 202.994056 
L 104.068266 206.079874 
L 104.691746 225.78068 
L 105.315226 256.257632 
L 105.626966 257.879919 
L 106.250447 236.227422 
L 106.562187 226.965405 
L 106.873927 239.654742 
L 107.185667 243.267761 
L 107.497407 251.437579 
L 107.809147 255.502976 
L 108.120887 250.277567 
L 108.432627 247.768982 
L 108.744367 252.550066 
L 109.056107 247.934998 
L 109.367847 255.941701 
L 109.679587 247.560034 
L 109.991327 247.36766 
L 110.303067 252.21253 
L 110.614808 248.179405 
L 111.238288 266.441308 
L 111.550028 263.956296 
L 111.861768 266.924811 
L 112.173508 254.870746 
L 112.485248 256.379094 
L 113.108728 247.327037 
L 113.420468 246.092034 
L 113.732208 250.972944 
L 114.043948 249.514681 
L 114.355688 243.822392 
L 114.667428 233.241972 
L 114.979168 234.235906 
L 115.290908 231.212671 
L 115.602649 247.441935 
L 115.914389 234.426176 
L 116.226129 236.669269 
L 116.537869 236.013199 
L 116.849609 249.960498 
L 117.473089 235.007169 
L 117.784829 238.686611 
L 118.096569 246.65277 
L 118.408309 250.360228 
L 118.720049 243.866653 
L 119.031789 227.38001 
L 119.655269 214.501441 
L 120.278749 199.185665 
L 120.90223 218.381968 
L 121.21397 220.79039 
L 121.52571 222.020205 
L 121.83745 222.526165 
L 122.46093 214.129278 
L 122.77267 212.600943 
L 123.08441 214.044635 
L 123.39615 219.324512 
L 123.70789 213.076753 
L 124.01963 214.840506 
L 124.33137 211.684093 
L 124.64311 211.303045 
L 124.95485 213.789991 
L 125.266591 210.900683 
L 125.890071 219.700719 
L 126.201811 214.075536 
L 126.513551 219.492251 
L 126.825291 219.519452 
L 127.137031 218.85564 
L 127.448771 219.997627 
L 127.760511 202.852697 
L 128.072251 207.43679 
L 128.383991 206.567104 
L 128.695731 200.672678 
L 129.007471 197.305522 
L 129.319211 201.789802 
L 129.630951 198.838973 
L 130.254432 201.453861 
L 130.566172 197.626013 
L 130.877912 195.946829 
L 131.189652 194.978134 
L 131.501392 197.770766 
L 131.813132 209.889919 
L 132.124872 231.258813 
L 132.748352 249.868237 
L 133.371832 234.417283 
L 133.683572 245.256745 
L 133.995312 246.612486 
L 134.618792 237.35005 
L 134.930532 228.65846 
L 135.242273 227.630694 
L 135.554013 233.480747 
L 135.865753 233.384469 
L 136.489233 195.744124 
L 136.800973 186.414807 
L 137.112713 180.485341 
L 137.424453 167.391932 
L 138.047933 159.469655 
L 138.359673 167.694319 
L 138.983153 173.059888 
L 139.294893 165.505182 
L 139.606633 165.268873 
L 139.918374 166.346424 
L 140.230114 165.240734 
L 140.541854 162.903007 
L 140.853594 166.115006 
L 141.165334 178.453113 
L 141.477074 173.096439 
L 142.100554 156.843785 
L 142.412294 152.443652 
L 142.724034 165.966578 
L 143.035774 166.832024 
L 143.347514 179.793684 
L 143.659254 186.582282 
L 143.970994 199.506547 
L 144.282734 199.42538 
L 144.594474 197.393741 
L 144.906215 181.962171 
L 145.217955 180.038877 
L 145.529695 179.894978 
L 145.841435 175.34984 
L 146.153175 204.556416 
L 146.464915 202.951252 
L 147.088395 219.052296 
L 147.400135 221.784058 
L 147.711875 222.815012 
L 147.99439 217.456839 
L 148.30613 225.55613 
L 148.61787 225.334465 
L 148.900384 221.580278 
L 149.212124 228.408711 
L 149.523864 238.714279 
L 149.835604 236.419997 
L 150.147344 236.304225 
L 150.459084 235.57507 
L 150.770824 226.13761 
L 151.082565 228.360528 
L 151.394305 214.371062 
L 151.706045 208.397347 
L 152.017785 193.780566 
L 152.329525 200.006904 
L 152.641265 186.831439 
L 152.953005 195.265845 
L 153.264745 200.521467 
L 153.576485 210.09178 
L 153.888225 202.173709 
L 154.199965 212.37045 
L 154.511705 208.196009 
L 154.823445 213.384432 
L 155.758666 190.874822 
L 156.070406 194.333063 
L 156.382146 182.650845 
L 157.005626 197.220046 
L 157.629106 172.506958 
L 157.940846 172.777543 
L 158.252586 175.019554 
L 159.187806 168.440504 
L 159.499546 171.765808 
L 159.811286 163.943856 
L 160.123026 166.920943 
L 160.434766 162.810087 
L 160.746507 164.275979 
L 161.058247 166.897377 
L 161.369987 165.651017 
L 161.681727 165.613311 
L 161.993467 158.140217 
L 162.305207 163.940538 
L 162.616947 164.901182 
L 162.928687 162.624195 
L 163.240427 159.045719 
L 163.552167 152.412233 
L 163.863907 150.477699 
L 164.175647 153.915113 
L 164.487387 155.860292 
L 164.799127 161.530406 
L 165.110867 162.091424 
L 165.422607 155.997357 
L 165.734348 159.213528 
L 166.046088 151.522322 
L 166.357828 151.682615 
L 166.669568 151.990141 
L 166.981308 141.730037 
L 167.293048 136.119103 
L 167.604788 134.325736 
L 168.228268 126.92977 
L 168.540008 134.867433 
L 168.851748 138.739639 
L 169.163488 144.050155 
L 169.475228 140.839907 
L 169.786968 135.683678 
L 170.098708 126.516122 
L 170.410449 121.496834 
L 170.722189 120.949049 
L 171.033929 122.004886 
L 171.345669 118.165198 
L 171.657409 118.646564 
L 171.969149 114.558402 
L 172.280889 113.308929 
L 172.592629 116.576912 
L 172.904369 115.146839 
L 173.216109 116.563757 
L 173.527849 115.743091 
L 173.839589 118.994135 
L 174.151329 112.445487 
L 174.463069 111.057498 
L 175.086549 103.536804 
L 175.39829 105.232953 
L 176.02177 113.529338 
L 176.33351 116.839966 
L 176.64525 123.816271 
L 177.58047 118.10236 
L 177.89221 115.401983 
L 178.20395 114.190253 
L 178.51569 106.755426 
L 178.82743 106.569095 
L 179.13917 102.217633 
L 179.45091 101.324322 
L 180.07439 94.220163 
L 180.386131 97.977487 
L 180.697871 99.523048 
L 181.009611 106.757211 
L 181.321351 105.637309 
L 181.633091 103.999214 
L 181.944831 100.659113 
L 182.256571 105.320751 
L 182.568311 99.566992 
L 182.880051 98.801278 
L 183.191791 101.78382 
L 183.503531 102.195684 
L 184.127011 106.432759 
L 184.438751 104.761358 
L 184.750491 104.2261 
L 185.062232 108.272555 
L 185.373972 106.16631 
L 185.685712 105.091594 
L 185.997452 98.835623 
L 186.309192 104.387866 
L 186.620932 103.058443 
L 186.932672 103.042367 
L 187.244412 116.18372 
L 187.556152 122.279958 
L 187.867892 111.924634 
L 188.179632 107.840942 
L 188.491372 115.834029 
L 189.426592 152.517829 
L 189.738332 150.28996 
L 190.050073 154.473023 
L 190.361813 156.492538 
L 190.673553 144.440808 
L 190.985293 149.46693 
L 191.297033 157.178355 
L 192.232253 135.360265 
L 192.543993 132.360427 
L 192.855733 130.893733 
L 193.167473 128.664113 
L 193.479213 128.350042 
L 193.790953 122.861035 
L 194.102693 125.66988 
L 194.414433 124.080374 
L 195.037914 149.715157 
L 195.661394 167.041132 
L 195.973134 176.517585 
L 196.284874 175.235508 
L 196.908354 157.746036 
L 197.531834 133.858109 
L 197.843574 139.657532 
L 198.155314 134.617839 
L 198.467054 136.713363 
L 198.778794 135.90419 
L 199.402274 132.127084 
L 199.714015 134.916367 
L 200.025755 136.666809 
L 200.337495 136.716952 
L 200.649235 135.447083 
L 200.960975 132.064743 
L 201.272715 142.598135 
L 201.584455 139.789301 
L 201.896195 133.343514 
L 202.207935 132.403904 
L 202.831415 123.937631 
L 203.143155 115.573531 
L 203.454895 119.928135 
L 203.766635 111.514632 
L 204.078375 108.868761 
L 204.390115 112.691189 
L 204.701856 111.137866 
L 205.013596 117.305861 
L 205.325336 116.670765 
L 205.637076 110.888354 
L 205.948816 107.683011 
L 206.260556 99.100798 
L 206.572296 102.79495 
L 206.884036 110.666319 
L 207.195776 113.735919 
L 207.819256 101.58864 
L 208.130996 107.957064 
L 208.442736 106.123368 
L 208.754476 105.227938 
L 209.066216 101.175777 
L 209.377956 98.718498 
L 209.689697 99.820786 
L 210.001437 103.341125 
L 210.313177 99.079501 
L 210.624917 96.546708 
L 210.936657 92.914549 
L 211.248397 93.035786 
L 211.560137 93.385588 
L 212.183617 96.210713 
L 212.495357 93.812833 
L 212.807097 98.554146 
L 213.430577 87.239087 
L 213.742317 94.672713 
L 214.054057 95.117212 
L 214.365798 95.183089 
L 214.677538 95.976262 
L 214.989278 93.550603 
L 215.612758 102.313166 
L 215.924498 92.205625 
L 216.236238 89.817234 
L 216.547978 80.460535 
L 217.171458 89.749617 
L 217.483198 90.257651 
L 217.794938 98.782298 
L 218.106678 99.196996 
L 218.730158 104.34697 
L 219.041898 91.223896 
L 219.353639 90.439728 
L 219.665379 86.627483 
L 219.977119 84.483067 
L 220.288859 86.203946 
L 220.600599 84.528045 
L 220.912339 86.797849 
L 221.224079 86.546901 
L 221.535819 90.183328 
L 221.847559 92.167179 
L 222.159299 92.120037 
L 222.471039 90.285492 
L 222.782779 93.754205 
L 223.406259 88.95261 
L 223.717999 88.515157 
L 224.029739 95.928229 
L 224.34148 97.108518 
L 224.65322 95.44484 
L 224.96496 94.520427 
L 225.2767 89.411372 
L 225.58844 88.99354 
L 225.90018 84.100492 
L 226.21192 86.243001 
L 226.52366 90.819234 
L 226.8354 87.910937 
L 227.45888 90.163939 
L 227.77062 93.548317 
L 228.08236 89.308513 
L 228.70584 93.611081 
L 229.017581 93.053949 
L 229.329321 91.208473 
L 229.641061 92.84815 
L 229.952801 98.32668 
L 230.264541 95.232756 
L 230.576281 94.684641 
L 231.199761 96.874455 
L 231.511501 95.523223 
L 231.823241 99.946921 
L 232.134981 102.246716 
L 232.446721 100.571989 
L 233.070201 91.432801 
L 233.381941 91.731772 
L 233.693681 87.85451 
L 234.005422 87.58164 
L 234.317162 89.490281 
L 234.940642 84.424692 
L 235.252382 85.064494 
L 235.564122 84.786252 
L 236.187602 88.867434 
L 236.499342 99.106069 
L 236.811082 93.238361 
L 237.122822 90.032944 
L 237.434562 83.008587 
L 238.058042 85.401885 
L 238.369782 80.980694 
L 238.681522 85.875986 
L 238.993263 85.701447 
L 239.305003 88.982616 
L 239.616743 84.554805 
L 240.240223 92.687294 
L 240.863703 89.566094 
L 241.175443 84.185902 
L 241.487183 83.673365 
L 241.798923 86.824424 
L 242.110663 93.210074 
L 242.422403 91.431241 
L 242.734143 93.701295 
L 243.045883 90.974762 
L 243.357623 90.016799 
L 243.981104 95.498971 
L 244.292844 89.999189 
L 244.604584 90.376342 
L 244.916324 88.853024 
L 245.539804 88.570046 
L 245.851544 90.868841 
L 246.163284 92.306744 
L 246.475024 86.066329 
L 246.786764 87.794527 
L 247.410244 82.730103 
L 247.721984 86.607245 
L 248.033724 84.80551 
L 248.345464 88.387396 
L 249.280685 79.404985 
L 249.592425 81.00786 
L 249.904165 88.671525 
L 250.215905 85.529027 
L 250.527645 83.914195 
L 250.839385 89.954264 
L 251.151125 84.46498 
L 251.462865 89.289027 
L 251.774605 86.515355 
L 252.398085 77.495801 
L 252.709825 75.149989 
L 253.021565 77.587605 
L 253.333305 78.157365 
L 253.645046 85.033927 
L 253.956786 81.703805 
L 254.580266 80.610391 
L 254.892006 82.397237 
L 255.203746 93.695511 
L 255.515486 91.064856 
L 256.450706 97.79002 
L 256.762446 92.034604 
L 257.074186 93.113702 
L 257.385926 96.682561 
L 257.697666 98.029223 
L 258.009406 94.412562 
L 258.321147 96.128844 
L 258.632887 89.339886 
L 258.944627 94.10903 
L 259.568107 92.51322 
L 259.879847 86.774355 
L 260.191587 88.103672 
L 260.503327 83.384126 
L 260.815067 82.35701 
L 261.126807 77.425169 
L 261.438547 81.925843 
L 261.750287 76.765511 
L 262.062027 83.93982 
L 262.685507 83.135752 
L 262.997247 85.399205 
L 263.308988 89.740145 
L 263.620728 86.757662 
L 263.932468 94.523351 
L 264.244208 95.22438 
L 265.179428 80.714372 
L 265.491168 75.645557 
L 265.802908 84.359132 
L 266.426388 73.961154 
L 266.738128 74.24317 
L 267.049868 70.734206 
L 267.361608 69.76616 
L 267.673348 74.237151 
L 267.985088 84.537791 
L 268.296829 82.94264 
L 268.920309 77.15737 
L 269.232049 81.249525 
L 269.543789 79.289838 
L 269.855529 79.855893 
L 270.167269 83.149852 
L 270.479009 79.289413 
L 270.790749 73.5363 
L 271.102489 72.350195 
L 271.414229 84.526651 
L 271.725969 83.139847 
L 272.037709 80.324775 
L 272.349449 82.80646 
L 272.661189 79.180532 
L 272.97293 80.027951 
L 273.59641 83.757875 
L 273.90815 80.60439 
L 274.21989 85.098888 
L 274.53163 82.208829 
L 274.84337 81.404675 
L 275.15511 85.52473 
L 275.46685 84.778759 
L 275.77859 83.686438 
L 276.09033 83.812137 
L 276.40207 86.1433 
L 276.71381 84.236592 
L 277.02555 83.120672 
L 277.33729 89.934189 
L 277.64903 80.915272 
L 277.960771 76.528654 
L 278.272511 79.31038 
L 278.584251 81.020796 
L 278.895991 83.764145 
L 279.207731 79.83323 
L 279.519471 85.421075 
L 279.831211 83.724804 
L 280.142951 87.329389 
L 280.454691 93.044304 
L 280.766431 89.848682 
L 281.078171 84.725368 
L 281.389911 87.454969 
L 281.701651 83.673613 
L 282.013391 88.631975 
L 282.636871 95.751977 
L 283.260352 88.028963 
L 283.572092 88.697183 
L 283.883832 84.729021 
L 284.195572 83.531027 
L 285.130792 87.75521 
L 285.442532 85.056352 
L 285.754272 78.052175 
L 286.066012 92.813038 
L 286.377752 88.223683 
L 286.689492 80.260704 
L 286.972007 76.992932 
L 287.283747 82.482934 
L 287.595487 78.535779 
L 287.907227 82.594345 
L 288.218967 82.997561 
L 288.530707 77.367828 
L 288.842447 80.696149 
L 289.154187 82.347921 
L 289.777667 92.980133 
L 290.089407 90.34671 
L 290.712888 80.298701 
L 291.024628 84.41268 
L 291.336368 83.481859 
L 291.648108 85.235181 
L 291.959848 90.257793 
L 292.271588 89.055056 
L 292.583328 88.336066 
L 292.895068 90.149327 
L 293.206808 85.365059 
L 293.518548 86.564909 
L 293.830288 82.126693 
L 294.142028 81.106743 
L 294.453768 84.408826 
L 294.765508 82.586456 
L 295.077248 82.521762 
L 295.388988 83.591659 
L 295.700729 80.049777 
L 296.012469 84.885924 
L 296.324209 82.687842 
L 296.635949 81.891067 
L 296.947689 89.289254 
L 297.259429 87.616314 
L 297.571169 81.255064 
L 297.882909 77.387399 
L 298.194649 79.994995 
L 298.506389 83.620573 
L 298.818129 82.877963 
L 299.129869 80.160044 
L 299.441609 86.765409 
L 300.065089 78.305212 
L 300.37683 82.907323 
L 300.68857 91.320439 
L 301.00031 89.319598 
L 301.62379 80.346744 
L 302.24727 68.551843 
L 302.55901 69.155713 
L 303.18249 77.35222 
L 303.49423 81.651145 
L 303.80597 73.989316 
L 304.11771 76.070944 
L 304.42945 83.340134 
L 305.05293 79.922697 
L 305.364671 82.308669 
L 305.988151 81.627381 
L 306.299891 77.336761 
L 306.611631 76.122361 
L 306.923371 78.213491 
L 307.235111 75.344425 
L 307.546851 77.504982 
L 307.858591 74.542829 
L 308.170331 80.476569 
L 308.793811 73.158531 
L 309.105551 73.075942 
L 309.417291 68.025654 
L 309.729031 66.617254 
L 310.040771 69.097235 
L 310.352512 73.98165 
L 310.664252 75.054833 
L 310.975992 76.595376 
L 311.287732 76.650415 
L 311.599472 75.54854 
L 311.911212 82.186578 
L 312.222952 80.198763 
L 312.534692 82.346581 
L 312.846432 79.915435 
L 313.158172 79.41014 
L 313.469912 78.297723 
L 314.093392 83.152128 
L 314.405132 82.159347 
L 314.716872 78.330995 
L 315.028613 76.299563 
L 315.340353 72.701501 
L 315.652093 76.264413 
L 315.963833 76.449218 
L 316.275573 70.337919 
L 316.587313 74.017438 
L 316.899053 71.074625 
L 317.210793 79.46269 
L 317.834273 76.279855 
L 318.146013 78.131396 
L 318.457753 76.79908 
L 318.769493 77.515715 
L 319.081233 83.715607 
L 319.704713 75.715061 
L 320.016454 84.221813 
L 320.328194 76.495507 
L 320.639934 78.929445 
L 320.951674 74.375073 
L 321.575154 81.866478 
L 321.886894 82.701844 
L 322.198634 82.330866 
L 322.510374 72.462035 
L 323.133854 79.617186 
L 323.445594 78.730633 
L 323.757334 77.391028 
L 324.069074 80.730377 
L 324.380814 76.644838 
L 324.692554 82.964919 
L 325.004295 86.864385 
L 325.627775 75.245042 
L 325.939515 76.035266 
L 326.251255 71.745497 
L 326.562995 71.762457 
L 326.874735 72.440543 
L 327.186475 77.114727 
L 327.498215 76.545406 
L 327.809955 77.419685 
L 328.121695 74.346368 
L 328.433435 77.683626 
L 328.745175 75.839179 
L 329.056915 83.057214 
L 329.368655 84.562241 
L 329.680396 84.045268 
L 329.992136 82.017207 
L 330.303876 82.254368 
L 331.239096 77.797186 
L 331.550836 74.194294 
L 331.862576 75.917377 
L 332.174316 73.649011 
L 332.486056 78.319066 
L 332.797796 77.2243 
L 333.109536 73.532066 
L 333.421276 74.803772 
L 333.733016 71.749603 
L 334.044756 73.367309 
L 334.356496 76.542597 
L 334.979977 73.842739 
L 335.291717 72.902723 
L 335.915197 84.743441 
L 336.226937 84.755371 
L 336.538677 81.424835 
L 336.850417 82.253855 
L 337.162157 77.059423 
L 337.473897 74.528351 
L 337.785637 75.804348 
L 338.097377 82.045127 
L 338.409117 85.152551 
L 338.720857 83.87675 
L 339.032597 79.232182 
L 339.344337 84.73161 
L 339.656078 80.762263 
L 339.967818 81.217585 
L 340.279558 79.457042 
L 340.591298 79.986874 
L 340.903038 85.17038 
L 341.214778 80.070289 
L 341.526518 83.611709 
L 341.838258 82.555382 
L 342.149998 84.073112 
L 342.461738 81.005629 
L 342.773478 81.390384 
L 343.085218 80.83118 
L 343.396958 76.31353 
L 343.708698 81.421922 
L 344.020438 83.749209 
L 344.332179 78.435002 
L 344.643919 76.533343 
L 344.955659 83.863973 
L 345.267399 79.617006 
L 345.579139 82.391996 
L 345.890879 77.721057 
L 346.202619 84.707775 
L 346.514359 82.395603 
L 346.826099 74.033085 
L 347.137839 73.902989 
L 347.449579 71.339258 
L 347.761319 73.604843 
L 348.073059 79.322424 
L 348.384799 82.079158 
L 349.008279 74.36362 
L 349.32002 74.572613 
L 349.63176 75.964035 
L 349.9435 76.113992 
L 350.25524 70.697897 
L 350.56698 73.823983 
L 350.87872 72.187347 
L 351.19046 72.805338 
L 351.5022 77.365013 
L 351.81394 71.476071 
L 352.12568 74.663594 
L 352.43742 72.684268 
L 352.74916 79.842696 
L 353.0609 79.685661 
L 353.37264 74.155531 
L 353.68438 72.642873 
L 353.99612 77.43251 
L 354.307861 77.294771 
L 354.619601 72.869834 
L 354.931341 79.385529 
L 355.243081 79.544968 
L 355.554821 76.731139 
L 355.866561 87.134023 
L 356.178301 85.92971 
L 356.490041 83.279582 
L 356.801781 86.467091 
L 357.113521 80.052314 
L 357.425261 83.460729 
L 357.737001 81.443199 
L 358.048741 88.45436 
L 358.360481 80.725534 
L 358.672221 79.257837 
L 358.983962 73.54792 
L 359.295702 78.00041 
L 359.578216 77.063663 
L 359.889956 71.756287 
L 360.201696 75.030087 
L 360.513436 75.506166 
L 360.825176 74.199435 
L 361.136916 72.398978 
L 361.448656 75.928346 
L 361.760396 74.932076 
L 362.072137 71.811437 
L 362.383877 72.233698 
L 362.695617 72.445505 
L 363.007357 76.661772 
L 363.319097 77.093611 
L 363.630837 75.299872 
L 363.942577 77.138565 
L 364.254317 81.294365 
L 364.566057 78.290545 
L 364.877797 73.20731 
L 365.189537 72.43165 
L 366.124757 80.531361 
L 366.436497 78.162416 
L 366.748237 76.695925 
L 367.059978 73.754393 
L 367.371718 65.679836 
L 367.683458 67.267473 
L 367.995198 65.558536 
L 368.306938 68.380891 
L 368.618678 74.208713 
L 368.930418 73.952922 
L 369.242158 72.193566 
L 369.553898 73.233614 
L 369.865638 73.031821 
L 370.177378 68.672741 
L 370.489118 69.239265 
L 370.800858 71.192993 
L 371.112598 77.113872 
L 371.424338 87.946532 
L 371.736078 81.164792 
L 372.047819 79.770396 
L 372.359559 79.631708 
L 372.671299 78.304272 
L 372.983039 72.721199 
L 373.294779 72.718278 
L 373.606519 74.414288 
L 373.918259 79.733871 
L 374.229999 74.833425 
L 374.541739 72.835657 
L 374.853479 77.715134 
L 375.165219 76.345663 
L 375.476959 79.307472 
L 375.788699 79.013109 
L 376.100439 82.997977 
L 376.412179 81.778889 
L 376.72392 78.419336 
L 377.03566 78.198304 
L 377.3474 75.282832 
L 377.65914 79.326316 
L 378.28262 71.659156 
L 378.59436 74.056646 
L 378.9061 73.212182 
L 379.21784 74.84166 
L 380.15306 82.309581 
L 380.4648 82.462925 
L 380.77654 79.774784 
L 381.08828 73.512926 
L 381.40002 79.80677 
L 381.711761 82.367306 
L 382.023501 80.442407 
L 382.306015 83.535947 
L 382.929495 72.62318 
L 383.241235 73.715588 
L 383.552975 73.521799 
L 383.864715 72.598447 
L 384.176455 66.528508 
L 384.488195 68.3305 
L 384.799936 69.150933 
L 385.111676 71.161794 
L 385.39419 77.095609 
L 385.70593 71.213516 
L 386.01767 72.450724 
L 386.32941 74.402972 
L 386.64115 73.290861 
L 386.95289 78.70571 
L 387.26463 78.58187 
L 387.57637 83.573319 
L 388.511591 81.335442 
L 388.823331 77.067552 
L 389.135071 69.722364 
L 389.446811 69.535891 
L 390.070291 62.563665 
L 390.382031 74.896505 
L 390.693771 74.180611 
L 391.005511 71.986533 
L 391.317251 71.117621 
L 391.628991 78.570713 
L 391.940731 75.492554 
L 392.252471 75.468736 
L 392.564212 84.499302 
L 392.875952 78.745678 
L 393.187692 77.066559 
L 393.499432 74.687811 
L 393.811172 78.043057 
L 394.122912 74.536088 
L 394.434652 77.724237 
L 394.746392 78.102779 
L 395.058132 81.266082 
L 395.369872 80.851383 
L 395.681612 78.480039 
L 395.993352 73.32324 
L 396.305092 81.280604 
L 396.616832 76.696176 
L 396.928572 74.755772 
L 397.240312 74.411926 
L 397.552053 73.754565 
L 397.863793 72.83001 
L 398.175533 73.216241 
L 398.487273 72.584109 
L 398.487273 72.584109 
" clip-path="url(#pcf9e2f66cc)" style="fill: none; stroke: #4169e1; stroke-width: 1.5; stroke-linecap: square"/>
   </g>
   <g id="patch_3">
    <path d="M 57.6 307.584 
L 57.6 41.472 
" style="fill: none; stroke: #000000; stroke-width: 0.8; stroke-linejoin: miter; stroke-linecap: square"/>
   </g>
   <g id="patch_4">
    <path d="M 414.72 307.584 
L 414.72 41.472 
" style="fill: none; stroke: #000000; stroke-width: 0.8; stroke-linejoin: miter; stroke-linecap: square"/>
   </g>
   <g id="patch_5">
    <path d="M 57.6 307.584 
L 414.72 307.584 
" style="fill: none; stroke: #000000; stroke-width: 0.8; stroke-linejoin: miter; stroke-linecap: square"/>
   </g>
   <g id="patch_6">
    <path d="M 57.6 41.472 
L 414.72 41.472 
" style="fill: none; stroke: #000000; stroke-width: 0.8; stroke-linejoin: miter; stroke-linecap: square"/>
   </g>
  </g>
 </g>
 <defs>
  <clipPath id="pcf9e2f66cc">
   <rect x="57.6" y="41.472" width="357.12" height="266.112"/>
  </clipPath>
 </defs>
</svg>
